<?xml version="1.0" encoding="UTF-8"?>
<svg width="65px" height="65px" viewBox="0 0 65 65" version="1.1" xmlns="http://www.w3.org/2000/svg" xmlns:xlink="http://www.w3.org/1999/xlink">
  <!-- Generator: Sketch 46.2 (44496) - http://www.bohemiancoding.com/sketch -->
  <title>Знак</title>
  <desc>Created with Sketch.</desc>
  <defs></defs>
  <g id="Лого" stroke="none" stroke-width="1" fill="none" fill-rule="evenodd">
    <g id="Letter" transform="translate(-203.000000, -629.000000)" fill-rule="nonzero" fill="#FFFFFF">
      <g id="Знак" transform="translate(203.000000, 629.000000)">
        <path d="M32.5,62.4 C15.9,62.4 2.5,49 2.5,32.4 C2.5,15.9 15.9,2.5 32.5,2.5 C49,2.5 62.5,15.9 62.5,32.4 C62.5,49 49,62.4 32.5,62.4 L32.5,62.4 Z M32.5,0 C14.5,0 0,14.5 0,32.4 C0,50.4 14.5,64.9 32.5,64.9 C50.4,64.9 65,50.4 65,32.4 C65,14.5 50.4,0 32.5,0 Z" id="Shape"></path>
        <path d="M55.8,37.9414214 C55.8,37.2414214 55.9,35.5414214 56.4,35.5414214 C56.6,35.5414214 56.7,35.7414214 56.7,36.2414214 L56.8,39.5414214 C56.8,39.7414214 56.8,39.8414214 56.9,39.8414214 C57,39.8414214 57,39.7414214 57,39.5414214 L57,36.8414214 C57,36.2414214 57.1,36.1414214 57.3,36.3414214 C57.7,36.5414214 57.8,38.7414214 57.8,39.4414214 C57.7,41.1414214 57.6,42.7414214 58.3,43.9414214 C58.3,43.9414214 56,43.4414214 55.8,37.9414214 L55.8,37.9414214 Z M53.7,38.8414214 C53.6,38.2414214 53.6,36.5414214 54,36.4414214 C54.2,36.4414214 54.4,36.5414214 54.4,37.0414214 L54.7,39.7414214 C54.7,39.8414214 54.8,39.9414214 54.8,39.8414214 C54.9,39.8414214 54.9,39.7414214 54.9,39.6414214 L54.8,36.8414214 C54.7,36.3414214 54.9,36.2414214 55.1,36.3414214 C55.5,36.5414214 55.5,38.5414214 55.6,39.2414214 C55.8,40.7414214 56.1,42.3414214 56.9,43.3414214 C56.9,43.3414214 54.5,43.2414214 53.7,38.8414214 L53.7,38.8414214 Z M52,38.8414214 C51.9,38.4414214 51.6,37.1414214 51.9,37.0414214 C52,37.0414214 52.2,37.1414214 52.3,37.5414214 L52.8,39.7414214 C52.9,39.8414214 52.9,39.8414214 53,39.8414214 C53,39.8414214 53,39.7414214 53,39.7414214 L52.5,37.3414214 C52.4,36.9414214 52.6,36.8414214 52.7,36.9414214 C53.1,37.0414214 53.4,38.5414214 53.5,39.1414214 C53.7,40.3414214 54.2,41.7414214 54.9,42.4414214 C54.9,42.4414214 52.8,42.3414214 52,38.8414214 L52,38.8414214 Z M50.5,39.0414214 C50.5,38.6414214 50.2,37.7414214 50.5,37.6414214 C50.6,37.6414214 50.7,37.7414214 50.8,38.0414214 L51.3,39.7414214 C51.3,39.8414214 51.3,39.8414214 51.4,39.8414214 C51.4,39.8414214 51.4,39.7414214 51.4,39.7414214 L50.9,37.8414214 C50.9,37.5414214 51,37.5414214 51.1,37.5414214 C51.4,37.6414214 51.6,38.7414214 51.7,39.1414214 C51.9,40.0414214 52.3,40.8414214 52.8,41.4414214 C52.8,41.4414214 51.1,41.3414214 50.5,39.0414214 L50.5,39.0414214 Z M50.3,31.7414214 C50.4,31.5414214 50.5,31.6414214 50.6,32.0414214 L51,33.9414214 C51,34.0414214 51,34.1414214 51.1,34.1414214 C51.2,34.1414214 51.1,34.0414214 51.1,33.9414214 L50.9,31.9414214 C50.8,31.5414214 50.9,31.5414214 51.1,31.5414214 C51.4,31.7414214 51.7,33.1414214 51.8,33.6414214 C52,34.9414214 51.9,36.5414214 51.5,36.9414214 C51.1,36.6414214 50.4,35.2414214 50.2,33.9414214 C50.1,33.4414214 50,31.9414214 50.3,31.7414214 L50.3,31.7414214 Z M49.9,37.0414214 C49.4,36.8414214 48.9,35.6414214 48.6,34.5414214 C48.5,34.1414214 48.2,32.3414214 48.5,32.1414214 C48.5,32.0414214 48.6,32.0414214 48.7,32.4414214 L49.2,34.4414214 C49.2,34.4414214 49.3,34.5414214 49.3,34.5414214 C49.4,34.5414214 49.4,34.4414214 49.3,34.4414214 L49.1,33.0414214 C49.1,32.7414214 49.2,32.6414214 49.3,32.7414214 C49.6,32.8414214 49.8,33.7414214 49.9,34.2414214 C50.2,35.3414214 50.1,36.6414214 49.9,37.0414214 L49.9,37.0414214 Z M47.2,34.7414214 C47,34.3414214 46.6,33.1414214 46.8,32.9414214 C46.9,32.8414214 47,32.8414214 47,33.0414214 L47.8,34.7414214 C47.8,34.8414214 47.8,34.8414214 47.8,34.8414214 C47.9,34.8414214 47.9,34.7414214 47.9,34.7414214 L47.5,33.6414214 C47.5,33.3414214 47.5,33.3414214 47.6,33.3414214 C47.8,33.4414214 48.1,34.1414214 48.3,34.4414214 C49.2,36.9414214 48.1,36.9414214 47.2,34.7414214 L47.2,34.7414214 Z M46.4,31.1414214 C46.3,30.7414214 46.1,29.6414214 46.4,29.4414214 C46.5,29.3414214 46.6,29.3414214 46.7,29.6414214 L47.1,31.0414214 C47.1,31.0414214 47.1,31.1414214 47.2,31.1414214 C47.3,31.1414214 47.3,31.0414214 47.3,30.9414214 L47,29.4414214 C46.9,29.1414214 47,29.0414214 47.1,29.1414214 C47.5,29.2414214 47.9,30.3414214 48,30.7414214 C48.2,31.7414214 48,32.6414214 47.7,33.0414214 C47.2,32.8414214 46.6,32.1414214 46.4,31.1414214 L46.4,31.1414214 Z M45.7,33.2414214 C45.3,33.3414214 44.7,32.4414214 44.5,31.6414214 C44.5,31.2414214 44.3,30.3414214 44.6,30.1414214 C44.7,30.0414214 44.8,30.0414214 44.9,30.3414214 L45.3,31.6414214 C45.3,31.7414214 45.4,31.8414214 45.4,31.7414214 C45.5,31.7414214 45.5,31.7414214 45.5,31.6414214 L45.2,30.1414214 C45.2,29.8414214 45.2,29.8414214 45.4,29.8414214 C45.7,29.9414214 46.1,30.8414214 46.1,31.2414214 C46.3,32.0414214 46.2,33.0414214 45.7,33.2414214 L45.7,33.2414214 Z M43.9,33.8414214 C43.4,33.9414214 43,32.9414214 42.8,32.1414214 C42.8,31.8414214 42.7,30.8414214 43,30.6414214 C43.1,30.6414214 43.2,30.6414214 43.3,30.8414214 L43.6,32.2414214 C43.6,32.2414214 43.6,32.3414214 43.7,32.3414214 C43.7,32.3414214 43.7,32.2414214 43.7,32.1414214 L43.5,30.7414214 C43.5,30.4414214 43.6,30.4414214 43.7,30.4414214 C44,30.5414214 44.3,31.5414214 44.4,31.8414214 C44.5,32.6414214 44.4,33.7414214 43.9,33.8414214 L43.9,33.8414214 Z M42.2,30.5414214 L42.2,30.5414214 C41.8,30.3414214 41.4,29.6414214 41.3,29.0414214 C41.3,28.8414214 41.3,28.1414214 41.6,27.9414214 C41.7,27.8414214 41.7,27.8414214 41.8,28.1414214 L42,29.0414214 C42,29.1414214 42,29.2414214 42,29.2414214 C42.1,29.2414214 42.1,29.1414214 42.1,29.0414214 L42.1,28.1414214 C42,27.8414214 42.1,27.7414214 42.2,27.8414214 C42.5,27.9414214 42.7,28.5414214 42.7,28.8414214 C42.8,29.4414214 42.5,30.2414214 42.2,30.5414214 L42.2,30.5414214 Z M42,34.1414214 C41.5,34.1414214 41.1,33.2414214 41.1,32.4414214 C41,32.1414214 41,31.3414214 41.3,31.1414214 C41.4,31.1414214 41.5,31.1414214 41.6,31.3414214 L41.8,32.6414214 C41.8,32.7414214 41.8,32.8414214 41.8,32.7414214 C41.9,32.7414214 41.9,32.7414214 41.9,32.6414214 L41.8,31.2414214 C41.8,31.0414214 41.9,30.9414214 42,31.0414214 C42.3,31.1414214 42.5,31.9414214 42.5,32.3414214 C42.6,33.1414214 42.4,34.1414214 42,34.1414214 L42,34.1414214 Z M40.7,30.4414214 C40.4,30.8414214 39.8,30.9414214 39.7,31.0414214 C40.5,29.7414214 40.3,28.7414214 40,27.9414214 C40.3,27.9414214 40.9,28.3414214 41,28.9414214 C41.1,29.5414214 41,29.9414214 40.7,30.4414214 L40.7,30.4414214 Z M40.6,32.9414214 C40.5,33.7414214 40.2,34.4414214 39.8,34.4414214 C39.6,34.4414214 39.5,34.2414214 39.4,33.8414214 C39.5,33.6414214 39.6,33.3414214 39.6,32.9414214 C39.6,32.5414214 39.6,32.2414214 39.6,31.8414214 C39.7,31.5414214 39.9,31.3414214 40.1,31.3414214 C40.4,31.4414214 40.7,32.1414214 40.6,32.9414214 L40.6,32.9414214 Z M39,31.1414214 C38.5,30.8414214 38,29.9414214 38,29.1414214 C38,28.8414214 38.1,28.0414214 38.5,27.7414214 C38.6,27.6414214 38.7,27.7414214 38.8,28.1414214 L38.9,28.8414214 C38.9,28.9414214 38.9,29.0414214 39,29.0414214 C39.1,29.0414214 39.1,28.9414214 39.1,28.8414214 L39.1,28.1414214 C39.2,27.7414214 39.3,27.6414214 39.4,27.7414214 C39.8,27.9414214 40,28.8414214 40,29.0414214 C40,29.8414214 39.6,30.8414214 39,31.1414214 L39,31.1414214 Z M39.3,32.9414214 C39.2,33.9414214 38.6,34.8414214 37.9,35.2414214 C37.4,34.7414214 37,33.8414214 37.2,32.9414214 C37.2,32.6414214 37.3,31.7414214 37.8,31.6414214 C38,31.5414214 38.1,31.6414214 38.1,32.0414214 L38.1,32.7414214 C38.1,32.8414214 38.1,32.9414214 38.2,32.9414214 C38.3,32.9414214 38.3,32.8414214 38.3,32.7414214 L38.6,31.7414214 C38.7,31.3414214 38.8,31.2414214 39,31.3414214 C39.4,31.6414214 39.3,32.6414214 39.3,32.9414214 L39.3,32.9414214 Z M38.7,36.3414214 C38.8,36.3414214 38.8,36.3414214 38.8,36.3414214 C38.9,36.3414214 38.9,36.3414214 38.9,36.2414214 L38.9,35.5414214 C38.9,35.3414214 38.9,35.3414214 39,35.3414214 C39.3,35.4414214 39.4,35.9414214 39.4,36.1414214 C39.5,36.6414214 39.3,37.2414214 38.9,37.2414214 C38.5,37.3414214 38.2,36.7414214 38.2,36.2414214 C38.1,36.0414214 38.2,35.5414214 38.4,35.4414214 C38.5,35.3414214 38.6,35.4414214 38.6,35.5414214 L38.7,36.3414214 Z M39.7,38.3414214 L39.7,37.4414214 C39.7,37.3414214 39.8,37.2414214 39.9,37.2414214 C40.2,37.3414214 40.4,37.9414214 40.4,38.1414214 C40.5,38.6414214 40.3,39.3414214 39.8,39.3414214 C39.3,39.4414214 39,38.8414214 38.9,38.3414214 C38.9,38.1414214 38.9,37.5414214 39.2,37.3414214 C39.3,37.3414214 39.4,37.3414214 39.4,37.5414214 L39.6,38.3414214 C39.6,38.3414214 39.6,38.4414214 39.7,38.3414214 L39.7,38.3414214 Z M39.9,35.8414214 C40,35.8414214 40.1,35.8414214 40.1,35.9414214 L40.2,36.4414214 C40.2,36.5414214 40.2,36.5414214 40.2,36.5414214 C40.3,36.5414214 40.3,36.5414214 40.3,36.4414214 L40.3,35.9414214 C40.3,35.7414214 40.4,35.7414214 40.4,35.7414214 C40.7,35.8414214 40.8,36.2414214 40.8,36.3414214 C40.8,36.7414214 40.6,37.2414214 40.3,37.2414214 C39.9,37.2414214 39.7,36.8414214 39.7,36.4414214 C39.7,36.3414214 39.7,35.9414214 39.9,35.8414214 L39.9,35.8414214 Z M41,37.1414214 L41.1,37.7414214 C41.1,37.7414214 41.1,37.8414214 41.2,37.8414214 C41.2,37.8414214 41.2,37.7414214 41.2,37.7414214 L41.2,37.1414214 C41.2,36.9414214 41.3,36.9414214 41.4,36.9414214 C41.6,37.0414214 41.7,37.4414214 41.7,37.6414214 C41.8,38.0414214 41.6,38.5414214 41.2,38.5414214 C40.9,38.6414214 40.6,38.1414214 40.6,37.7414214 C40.6,37.5414214 40.6,37.1414214 40.8,37.0414214 C40.9,37.0414214 41,37.0414214 41,37.1414214 L41,37.1414214 Z M41.1,40.7414214 C40.7,40.8414214 40.4,40.2414214 40.4,39.7414214 C40.3,39.5414214 40.4,38.9414214 40.7,38.8414214 C40.8,38.8414214 40.8,38.8414214 40.9,39.0414214 L41,39.7414214 C41,39.8414214 41,39.8414214 41.1,39.8414214 L41.1,39.7414214 L41.1,38.9414214 C41.1,38.8414214 41.2,38.7414214 41.3,38.8414214 C41.6,38.8414214 41.8,39.4414214 41.8,39.6414214 C41.8,40.1414214 41.6,40.7414214 41.1,40.7414214 L41.1,40.7414214 Z M41.2,41.4414214 C40.8,41.2414214 40.5,41.2414214 40.5,41.2414214 C40.9,40.8414214 41.4,40.8414214 41.5,41.0414214 C41.6,41.2414214 41.5,41.5414214 41.2,41.4414214 L41.2,41.4414214 Z M39.9,41.3414214 C39.6,41.4414214 39.3,40.9414214 39.2,40.5414214 C39.1,40.3414214 39.1,39.8414214 39.3,39.7414214 C39.4,39.7414214 39.4,39.7414214 39.5,39.8414214 L39.7,40.5414214 C39.8,40.5414214 39.8,40.5414214 39.8,40.4414214 L39.7,39.8414214 C39.7,39.6414214 39.7,39.6414214 39.8,39.6414214 C40,39.6414214 40.2,40.1414214 40.3,40.3414214 C40.3,40.7414214 40.3,41.2414214 39.9,41.3414214 L39.9,41.3414214 Z M38.3,40.4414214 C37.9,40.4414214 37.7,39.9414214 37.7,39.5414214 C37.7,39.4414214 37.8,38.9414214 38,38.8414214 C38.1,38.8414214 38.2,38.8414214 38.2,38.9414214 L38.3,39.6414214 L38.4,39.6414214 L38.5,38.9414214 C38.5,38.8414214 38.6,38.8414214 38.7,38.8414214 C38.9,38.9414214 39,39.3414214 39,39.5414214 C39,39.9414214 38.8,40.4414214 38.3,40.4414214 L38.3,40.4414214 Z M37.4,37.8414214 C37.4,37.7414214 37.4,37.2414214 37.6,37.2414214 C37.7,37.1414214 37.8,37.1414214 37.8,37.2414214 L37.9,37.8414214 C37.9,37.8414214 37.9,37.9414214 38,37.9414214 C38,37.9414214 38,37.8414214 38,37.8414214 L38,37.2414214 C38,37.1414214 38.1,37.1414214 38.2,37.1414214 C38.4,37.2414214 38.5,37.6414214 38.5,37.7414214 C38.6,38.1414214 38.4,38.5414214 38,38.6414214 C37.7,38.6414214 37.4,38.2414214 37.4,37.8414214 L37.4,37.8414214 Z M37,39.9414214 C36.6,39.9414214 36.4,39.5414214 36.3,39.0414214 C36.3,38.9414214 36.3,38.4414214 36.6,38.3414214 C36.6,38.3414214 36.7,38.3414214 36.7,38.4414214 L36.8,39.1414214 C36.9,39.1414214 36.9,39.1414214 36.9,39.1414214 C37,39.1414214 36.9,39.1414214 37,39.1414214 L37,38.4414214 C37,38.3414214 37,38.2414214 37.1,38.3414214 C37.3,38.3414214 37.4,38.8414214 37.5,39.0414214 C37.5,39.4414214 37.3,39.9414214 37,39.9414214 L37,39.9414214 Z M35.5,38.4414214 C35.3,37.8414214 35.4,36.8414214 35.9,36.0414214 C36,35.8414214 36.6,35.0414214 37,35.0414214 C37.2,35.0414214 37.2,35.1414214 37,35.5414214 L36.5,36.6414214 C36.4,36.7414214 36.4,36.8414214 36.4,36.8414214 C36.5,36.9414214 36.6,36.8414214 36.6,36.7414214 L37.3,35.7414214 C37.6,35.3414214 37.7,35.3414214 37.8,35.5414214 C37.9,35.8414214 37.6,36.7414214 37.4,36.9414214 C37,37.7414214 36.1,38.3414214 35.5,38.4414214 L35.5,38.4414214 Z M36.3,40.9414214 L36.3,40.9414214 C36.6,41.8414214 39.8,49.0414214 40.7,51.6414214 C41,52.4414214 40.8,53.0414214 40,53.5414214 C39.1,54.0414214 38.1,53.6414214 37.8,52.6414214 C37.4,51.1414214 35.6,43.4414214 35.2,41.6414214 C35.1,41.4414214 35.2,41.3414214 35.4,41.3414214 C35.5,41.2414214 35.6,41.3414214 35.7,41.4414214 C36.1,42.7414214 38.1,49.0414214 38.6,50.6414214 C38.7,50.7414214 38.7,50.8414214 38.7,50.9414214 C38.8,50.9414214 38.9,51.0414214 39,51.0414214 C39,51.0414214 39,50.9414214 39,50.8414214 C39,50.7414214 39,50.6414214 39,50.6414214 C38.8,50.0414214 36.5,43.2414214 35.8,41.1414214 C35.8,40.9414214 35.9,40.8414214 36,40.7414214 C36.1,40.7414214 36.3,40.8414214 36.3,40.9414214 L36.3,40.9414214 Z M36.5,55.4414214 C35.5,55.8414214 34.5,55.2414214 34.4,54.2414214 C34.3,52.6414214 33.7,44.2414214 33.6,42.3414214 C33.6,42.1414214 33.7,42.0414214 33.9,42.0414214 C34,42.0414214 34.2,42.1414214 34.2,42.2414214 C34.4,43.6414214 35.4,50.7414214 35.6,52.4414214 C35.6,52.5414214 35.6,52.6414214 35.7,52.6414214 C35.7,52.7414214 35.8,52.8414214 35.8,52.8414214 C35.9,52.7414214 35.9,52.7414214 36,52.6414214 C36,52.5414214 36,52.4414214 36,52.4414214 C35.9,51.8414214 34.7,44.2414214 34.4,41.9414214 C34.4,41.8414214 34.5,41.6414214 34.7,41.6414214 C34.8,41.6414214 34.9,41.7414214 35,41.8414214 C35.1,42.8414214 37,50.9414214 37.5,53.6414214 C37.7,54.5414214 37.3,55.1414214 36.5,55.4414214 L36.5,55.4414214 Z M32.5,56.4414214 C31.6,56.5414214 30.9,55.8414214 30.9,54.9414214 C30.9,54.8414214 30.9,54.8414214 30.9,54.8414214 C30.9,54.7414214 30.9,54.7414214 30.9,54.7414214 C31,52.6414214 31.5,44.7414214 31.6,42.4414214 C31.6,42.2414214 31.8,42.1414214 32,42.1414214 C32.2,42.1414214 32.3,42.3414214 32.3,42.5414214 C32.3,45.3414214 32.3,52.8414214 32.3,53.3414214 C32.3,53.4414214 32.3,53.5414214 32.3,53.5414214 C32.4,53.6414214 32.4,53.7414214 32.5,53.7414214 C32.5,53.7414214 32.6,53.6414214 32.6,53.5414214 C32.7,53.5414214 32.6,53.4414214 32.6,53.3414214 C32.6,52.8414214 32.6,45.3414214 32.6,42.5414214 C32.6,42.3414214 32.8,42.1414214 33,42.1414214 C33.2,42.1414214 33.3,42.2414214 33.3,42.4414214 C33.5,44.7414214 34,52.6414214 34.1,54.7414214 L34.1,54.8414214 L34.1,54.9414214 C34.1,55.8414214 33.4,56.5414214 32.5,56.4414214 L32.5,56.4414214 Z M30.5,54.2414214 C30.5,55.2414214 29.5,55.8414214 28.5,55.4414214 C27.7,55.1414214 27.3,54.5414214 27.4,53.6414214 C27.9,50.9414214 29.8,42.8414214 30,41.8414214 C30,41.7414214 30.2,41.6414214 30.3,41.6414214 C30.5,41.6414214 30.6,41.8414214 30.5,41.9414214 C30.3,44.2414214 29.1,51.8414214 29,52.4414214 C29,52.4414214 29,52.5414214 29,52.6414214 C29,52.7414214 29.1,52.7414214 29.1,52.8414214 C29.2,52.8414214 29.3,52.7414214 29.3,52.6414214 C29.4,52.6414214 29.4,52.5414214 29.4,52.4414214 C29.6,50.7414214 30.6,43.6414214 30.8,42.2414214 C30.8,42.1414214 30.9,42.0414214 31.1,42.0414214 C31.2,42.0414214 31.3,42.1414214 31.3,42.3414214 C31.2,44.2414214 30.7,52.6414214 30.5,54.2414214 L30.5,54.2414214 Z M27.1,52.6414214 C26.9,53.6414214 25.8,54.0414214 24.9,53.5414214 C24.2,53.0414214 24,52.4414214 24.2,51.6414214 C25.2,49.0414214 28.3,41.8414214 28.7,40.9414214 C28.7,40.8414214 28.8,40.7414214 29,40.7414214 C29.1,40.8414214 29.2,40.9414214 29.1,41.1414214 C28.5,43.2414214 26.1,50.0414214 26,50.6414214 C26,50.6414214 25.9,50.7414214 25.9,50.8414214 C25.9,50.9414214 26,51.0414214 26,51.0414214 C26.1,51.0414214 26.2,50.9414214 26.2,50.9414214 C26.3,50.8414214 26.3,50.7414214 26.3,50.6414214 C26.8,49.0414214 28.9,42.7414214 29.3,41.4414214 C29.3,41.3414214 29.5,41.2414214 29.6,41.3414214 C29.7,41.3414214 29.8,41.4414214 29.8,41.6414214 C29.4,43.4414214 27.5,51.1414214 27.1,52.6414214 L27.1,52.6414214 Z M27.5,36.9414214 C27.4,36.7414214 27,35.8414214 27.2,35.5414214 C27.3,35.3414214 27.4,35.3414214 27.6,35.7414214 L28.3,36.7414214 C28.4,36.8414214 28.5,36.9414214 28.5,36.8414214 C28.6,36.8414214 28.5,36.7414214 28.5,36.6414214 L27.9,35.5414214 C27.7,35.1414214 27.8,35.0414214 28,35.0414214 C28.4,35.0414214 28.9,35.8414214 29.1,36.0414214 C29.5,36.8414214 29.6,37.8414214 29.4,38.4414214 C28.8,38.3414214 28,37.7414214 27.5,36.9414214 L27.5,36.9414214 Z M28.6,39.0414214 C28.6,39.5414214 28.4,39.9414214 28,39.9414214 C27.6,39.9414214 27.5,39.4414214 27.5,39.0414214 C27.5,38.8414214 27.6,38.3414214 27.9,38.3414214 C27.9,38.2414214 28,38.3414214 28,38.4414214 L28,39.1414214 L28.1,39.1414214 L28.2,38.4414214 C28.2,38.3414214 28.3,38.3414214 28.4,38.3414214 C28.6,38.4414214 28.6,38.9414214 28.6,39.0414214 L28.6,39.0414214 Z M26.9,38.6414214 C26.6,38.5414214 26.4,38.1414214 26.4,37.7414214 C26.4,37.6414214 26.5,37.2414214 26.8,37.1414214 C26.9,37.1414214 26.9,37.1414214 26.9,37.2414214 L26.9,37.8414214 C26.9,37.8414214 26.9,37.9414214 27,37.9414214 C27,37.9414214 27,37.8414214 27,37.8414214 L27.1,37.2414214 C27.2,37.1414214 27.2,37.1414214 27.3,37.2414214 C27.5,37.2414214 27.6,37.7414214 27.6,37.8414214 C27.5,38.2414214 27.3,38.6414214 26.9,38.6414214 L26.9,38.6414214 Z M26.6,40.4414214 C26.2,40.4414214 26,39.9414214 26,39.5414214 C26,39.3414214 26,38.9414214 26.3,38.8414214 C26.4,38.8414214 26.5,38.8414214 26.5,38.9414214 L26.6,39.6414214 C26.7,39.6414214 26.7,39.6414214 26.7,39.6414214 L26.7,38.9414214 C26.8,38.8414214 26.8,38.8414214 26.9,38.8414214 C27.2,38.9414214 27.3,39.4414214 27.3,39.5414214 C27.3,39.9414214 27,40.4414214 26.6,40.4414214 L26.6,40.4414214 Z M25.8,40.5414214 C25.7,40.9414214 25.4,41.4414214 25,41.3414214 C24.7,41.2414214 24.6,40.7414214 24.7,40.3414214 C24.8,40.1414214 24.9,39.6414214 25.2,39.6414214 C25.2,39.6414214 25.3,39.6414214 25.3,39.8414214 L25.2,40.4414214 C25.2,40.5414214 25.2,40.5414214 25.2,40.5414214 C25.3,40.5414214 25.3,40.5414214 25.3,40.5414214 L25.5,39.8414214 C25.5,39.7414214 25.6,39.7414214 25.7,39.7414214 C25.9,39.8414214 25.8,40.3414214 25.8,40.5414214 L25.8,40.5414214 Z M24.6,38.1414214 C24.6,37.9414214 24.8,37.3414214 25.1,37.2414214 C25.2,37.2414214 25.3,37.3414214 25.3,37.4414214 L25.2,38.3414214 L25.3,38.3414214 C25.4,38.4414214 25.4,38.3414214 25.4,38.3414214 L25.6,37.5414214 C25.6,37.3414214 25.7,37.3414214 25.8,37.3414214 C26.1,37.5414214 26.1,38.1414214 26.1,38.3414214 C26,38.8414214 25.6,39.4414214 25.2,39.3414214 C24.7,39.3414214 24.5,38.6414214 24.6,38.1414214 L24.6,38.1414214 Z M24.6,39.7414214 C24.6,40.2414214 24.3,40.8414214 23.8,40.7414214 C23.4,40.7414214 23.2,40.1414214 23.2,39.6414214 C23.2,39.4414214 23.3,38.8414214 23.6,38.8414214 C23.7,38.7414214 23.8,38.8414214 23.8,38.9414214 L23.8,39.7414214 C23.8,39.8414214 23.8,39.8414214 23.9,39.8414214 L24,39.7414214 L24.1,39.0414214 C24.1,38.8414214 24.2,38.8414214 24.3,38.8414214 C24.6,38.9414214 24.6,39.5414214 24.6,39.7414214 L24.6,39.7414214 Z M23.8,41.4414214 C23.4,41.5414214 23.4,41.2414214 23.5,41.0414214 C23.6,40.8414214 24,40.8414214 24.5,41.2414214 C24.5,41.2414214 24.2,41.2414214 23.8,41.4414214 L23.8,41.4414214 Z M23.2,37.6414214 C23.2,37.4414214 23.3,37.0414214 23.6,36.9414214 C23.7,36.9414214 23.7,36.9414214 23.7,37.1414214 L23.7,37.7414214 C23.7,37.7414214 23.7,37.8414214 23.8,37.8414214 C23.8,37.8414214 23.8,37.7414214 23.9,37.7414214 L24,37.1414214 C24,37.0414214 24,37.0414214 24.1,37.0414214 C24.4,37.1414214 24.4,37.5414214 24.4,37.7414214 C24.3,38.1414214 24.1,38.6414214 23.7,38.5414214 C23.4,38.5414214 23.2,38.0414214 23.2,37.6414214 L23.2,37.6414214 Z M24.2,36.3414214 C24.2,36.2414214 24.3,35.8414214 24.5,35.7414214 C24.6,35.7414214 24.7,35.7414214 24.7,35.9414214 L24.7,36.4414214 C24.7,36.5414214 24.7,36.5414214 24.7,36.5414214 C24.8,36.5414214 24.8,36.5414214 24.8,36.4414214 L24.9,35.9414214 C24.9,35.8414214 25,35.8414214 25,35.8414214 C25.3,35.9414214 25.3,36.3414214 25.3,36.4414214 C25.2,36.8414214 25,37.2414214 24.7,37.2414214 C24.3,37.2414214 24.2,36.7414214 24.2,36.3414214 L24.2,36.3414214 Z M25.5,36.1414214 C25.5,35.9414214 25.7,35.4414214 25.9,35.3414214 C26,35.3414214 26.1,35.3414214 26.1,35.5414214 L26.1,36.2414214 C26.1,36.3414214 26.1,36.3414214 26.2,36.3414214 L26.3,35.5414214 C26.4,35.4414214 26.4,35.3414214 26.5,35.4414214 C26.8,35.5414214 26.8,36.0414214 26.8,36.2414214 C26.8,36.7414214 26.5,37.3414214 26.1,37.2414214 C25.7,37.2414214 25.5,36.6414214 25.5,36.1414214 L25.5,36.1414214 Z M25.7,32.9414214 C25.6,32.6414214 25.6,31.6414214 26,31.3414214 C26.2,31.2414214 26.3,31.3414214 26.4,31.7414214 L26.6,32.7414214 C26.6,32.8414214 26.7,32.9414214 26.8,32.9414214 C26.9,32.9414214 26.8,32.8414214 26.8,32.7414214 L26.9,32.0414214 C26.9,31.6414214 27,31.5414214 27.2,31.6414214 C27.7,31.7414214 27.8,32.6414214 27.8,32.9414214 C27.9,33.8414214 27.6,34.7414214 27,35.2414214 C26.4,34.8414214 25.8,33.9414214 25.7,32.9414214 L25.7,32.9414214 Z M25,29.0414214 C25,28.8414214 25.1,27.9414214 25.5,27.7414214 C25.7,27.6414214 25.8,27.7414214 25.8,28.1414214 L25.9,28.8414214 C25.9,28.9414214 25.9,29.0414214 26,29.0414214 C26.1,29.0414214 26,28.9414214 26.1,28.8414214 L26.2,28.1414214 C26.2,27.7414214 26.3,27.6414214 26.5,27.7414214 C26.9,28.0414214 27,28.8414214 27,29.1414214 C26.9,29.9414214 26.4,30.8414214 25.9,31.1414214 C25.4,30.8414214 25,29.8414214 25,29.0414214 L25,29.0414214 Z M25.1,34.4414214 C24.8,34.4414214 24.5,33.7414214 24.4,32.9414214 C24.3,32.1414214 24.5,31.4414214 24.9,31.3414214 C25.1,31.3414214 25.3,31.5414214 25.4,31.8414214 C25.3,32.2414214 25.3,32.5414214 25.4,32.9414214 C25.4,33.3414214 25.5,33.6414214 25.5,33.8414214 C25.5,34.2414214 25.3,34.4414214 25.1,34.4414214 L25.1,34.4414214 Z M24,28.9414214 C24.1,28.3414214 24.7,27.9414214 24.9,27.9414214 C24.6,28.7414214 24.5,29.7414214 25.3,31.0414214 C25.2,30.9414214 24.6,30.8414214 24.3,30.4414214 C23.9,29.9414214 23.9,29.5414214 24,28.9414214 L24,28.9414214 Z M23.9,32.4414214 C23.8,33.2414214 23.5,34.1414214 23,34.1414214 C22.5,34.1414214 22.3,33.1414214 22.4,32.3414214 C22.5,31.9414214 22.6,31.1414214 22.9,31.0414214 C23.1,30.9414214 23.1,31.0414214 23.1,31.2414214 L23.1,32.6414214 C23.1,32.7414214 23.1,32.7414214 23.1,32.7414214 C23.2,32.8414214 23.2,32.7414214 23.2,32.6414214 L23.4,31.3414214 C23.4,31.1414214 23.5,31.1414214 23.6,31.1414214 C23.9,31.3414214 23.9,32.1414214 23.9,32.4414214 L23.9,32.4414214 Z M22.2,28.8414214 C22.3,28.5414214 22.4,27.9414214 22.7,27.8414214 C22.8,27.7414214 22.9,27.8414214 22.9,28.1414214 L22.9,29.0414214 C22.9,29.1414214 22.9,29.2414214 22.9,29.2414214 C23,29.2414214 23,29.1414214 23,29.0414214 L23.2,28.1414214 C23.2,27.8414214 23.3,27.8414214 23.4,27.9414214 C23.7,28.1414214 23.7,28.8414214 23.7,29.0414214 C23.6,29.6414214 23.2,30.3414214 22.8,30.5414214 C22.4,30.2414214 22.2,29.4414214 22.2,28.8414214 L22.2,28.8414214 Z M22.1,32.1414214 C22,32.9414214 21.5,33.9414214 21,33.8414214 C20.5,33.7414214 20.4,32.6414214 20.6,31.8414214 C20.6,31.5414214 20.9,30.5414214 21.3,30.4414214 C21.4,30.4414214 21.5,30.4414214 21.4,30.7414214 L21.2,32.1414214 C21.2,32.2414214 21.2,32.3414214 21.3,32.3414214 C21.4,32.3414214 21.4,32.2414214 21.4,32.2414214 L21.7,30.8414214 C21.8,30.6414214 21.9,30.6414214 22,30.6414214 C22.3,30.8414214 22.2,31.8414214 22.1,32.1414214 L22.1,32.1414214 Z M19.2,33.2414214 C18.8,33.0414214 18.6,32.0414214 18.8,31.2414214 C18.9,30.8414214 19.2,29.9414214 19.6,29.8414214 C19.7,29.8414214 19.8,29.8414214 19.8,30.1414214 L19.5,31.6414214 C19.5,31.7414214 19.5,31.7414214 19.5,31.7414214 C19.6,31.8414214 19.6,31.7414214 19.6,31.6414214 L20,30.3414214 C20.1,30.0414214 20.2,30.0414214 20.3,30.1414214 C20.6,30.3414214 20.5,31.2414214 20.4,31.6414214 C20.2,32.4414214 19.7,33.3414214 19.2,33.2414214 L19.2,33.2414214 Z M18.6,31.1414214 C18.4,32.1414214 17.8,32.8414214 17.3,33.0414214 C16.9,32.6414214 16.8,31.7414214 17,30.7414214 C17.1,30.3414214 17.5,29.2414214 17.8,29.1414214 C18,29.0414214 18.1,29.1414214 18,29.4414214 L17.7,30.9414214 C17.7,31.0414214 17.7,31.1414214 17.7,31.1414214 C17.8,31.1414214 17.8,31.0414214 17.9,31.0414214 L18.3,29.6414214 C18.4,29.3414214 18.5,29.3414214 18.6,29.4414214 C18.9,29.6414214 18.7,30.7414214 18.6,31.1414214 L18.6,31.1414214 Z M17.8,34.7414214 C16.8,36.9414214 15.7,36.9414214 16.7,34.4414214 C16.8,34.1414214 17.1,33.4414214 17.3,33.3414214 C17.4,33.3414214 17.5,33.3414214 17.4,33.6414214 L17.1,34.7414214 C17.1,34.7414214 17.1,34.8414214 17.1,34.8414214 C17.2,34.8414214 17.2,34.8414214 17.2,34.7414214 L17.9,33.0414214 C18,32.8414214 18.1,32.8414214 18.2,32.9414214 C18.3,33.1414214 18,34.3414214 17.8,34.7414214 L17.8,34.7414214 Z M15.1,37.0414214 C14.8,36.6414214 14.8,35.3414214 15,34.2414214 C15.1,33.7414214 15.4,32.8414214 15.7,32.7414214 C15.8,32.6414214 15.9,32.7414214 15.8,33.0414214 L15.6,34.4414214 C15.6,34.4414214 15.6,34.5414214 15.6,34.5414214 C15.7,34.5414214 15.7,34.4414214 15.7,34.4414214 L16.2,32.4414214 C16.3,32.0414214 16.4,32.0414214 16.5,32.1414214 C16.7,32.3414214 16.4,34.1414214 16.3,34.5414214 C16.1,35.6414214 15.5,36.8414214 15.1,37.0414214 L15.1,37.0414214 Z M14.8,33.9414214 C14.5,35.2414214 13.9,36.6414214 13.4,36.9414214 C13,36.5414214 12.9,34.9414214 13.1,33.6414214 C13.2,33.1414214 13.5,31.7414214 13.9,31.5414214 C14,31.5414214 14.1,31.5414214 14.1,31.9414214 L13.8,33.9414214 C13.8,34.0414214 13.8,34.1414214 13.9,34.1414214 C13.9,34.1414214 14,34.0414214 14,33.9414214 L14.4,32.0414214 C14.5,31.6414214 14.6,31.5414214 14.7,31.7414214 C15,31.9414214 14.8,33.4414214 14.8,33.9414214 L14.8,33.9414214 Z M14.4,39.0414214 C13.8,41.3414214 12.1,41.4414214 12.1,41.4414214 C12.7,40.8414214 13,40.0414214 13.2,39.1414214 C13.3,38.7414214 13.6,37.6414214 13.9,37.5414214 C14,37.5414214 14.1,37.5414214 14,37.8414214 L13.5,39.7414214 C13.5,39.7414214 13.5,39.8414214 13.6,39.8414214 C13.6,39.8414214 13.7,39.8414214 13.7,39.7414214 L14.2,38.0414214 C14.3,37.7414214 14.4,37.6414214 14.5,37.6414214 C14.8,37.7414214 14.5,38.6414214 14.4,39.0414214 L14.4,39.0414214 Z M10,42.4414214 C10.7,41.7414214 11.2,40.3414214 11.5,39.1414214 C11.6,38.5414214 11.9,37.0414214 12.3,36.9414214 C12.4,36.8414214 12.6,36.9414214 12.5,37.3414214 L11.9,39.7414214 C11.9,39.7414214 11.9,39.8414214 12,39.8414214 C12,39.8414214 12.1,39.8414214 12.1,39.7414214 L12.7,37.5414214 C12.8,37.1414214 12.9,37.0414214 13,37.0414214 C13.4,37.1414214 13.1,38.4414214 13,38.8414214 C12.1,42.3414214 10,42.4414214 10,42.4414214 L10,42.4414214 Z M8.1,43.3414214 C8.9,42.3414214 9.2,40.7414214 9.4,39.2414214 C9.5,38.5414214 9.5,36.5414214 9.9,36.3414214 C10,36.2414214 10.2,36.3414214 10.2,36.8414214 L10,39.6414214 C10,39.7414214 10,39.8414214 10.1,39.8414214 C10.2,39.9414214 10.3,39.8414214 10.3,39.7414214 L10.6,37.0414214 C10.6,36.5414214 10.8,36.4414214 10.9,36.4414214 C11.4,36.5414214 11.3,38.2414214 11.2,38.8414214 C10.5,43.2414214 8.1,43.3414214 8.1,43.3414214 L8.1,43.3414214 Z M6.7,43.9414214 C7.4,42.7414214 7.2,41.1414214 7.2,39.4414214 C7.1,38.7414214 7.2,36.5414214 7.7,36.3414214 C7.8,36.1414214 7.9,36.2414214 7.9,36.8414214 L7.9,39.5414214 C7.9,39.7414214 7.9,39.8414214 8,39.8414214 C8.1,39.8414214 8.2,39.7414214 8.2,39.5414214 L8.3,36.2414214 C8.3,35.7414214 8.4,35.5414214 8.6,35.5414214 C9.1,35.5414214 9.1,37.2414214 9.1,37.9414214 C8.9,43.4414214 6.7,43.9414214 6.7,43.9414214 L6.7,43.9414214 Z M7.1,35.5414214 C7.5,34.5414214 7.4,33.4414214 7.4,32.1414214 C7.3,31.5414214 7.4,29.7414214 7.8,29.5414214 C7.9,29.4414214 8,29.5414214 8,29.9414214 L8,32.1414214 C8,32.2414214 8,32.3414214 8.1,32.3414214 C8.2,32.3414214 8.2,32.2414214 8.2,32.1414214 L8.4,29.3414214 C8.5,28.9414214 8.5,28.7414214 8.7,28.7414214 C9.2,28.7414214 9.2,30.1414214 9.2,30.7414214 C9,34.5414214 7.1,35.5414214 7.1,35.5414214 L7.1,35.5414214 Z M7.2,29.1414214 C7.4,28.3414214 7.6,27.2414214 7.8,26.0414214 C7.9,25.5414214 8.2,23.8414214 8.6,23.6414214 C8.8,23.6414214 8.9,23.7414214 8.8,24.1414214 L8.4,26.4414214 C8.4,26.4414214 8.4,26.5414214 8.5,26.5414214 C8.6,26.5414214 8.7,26.5414214 8.7,26.4414214 L9.1,24.6414214 C9.2,24.2414214 9.3,24.1414214 9.5,24.2414214 C9.8,24.5414214 9.7,25.6414214 9.6,26.1414214 C9,28.7414214 7.2,29.1414214 7.2,29.1414214 L7.2,29.1414214 Z M9.3,20.5414214 C9.5,20.0414214 10.4,18.7414214 10.8,18.7414214 C10.9,18.7414214 11,18.8414214 10.8,19.1414214 L9.6,21.3414214 C9.6,21.4414214 9.5,21.4414214 9.6,21.5414214 C9.7,21.5414214 9.7,21.5414214 9.7,21.4414214 L11.3,19.0414214 C11.5,18.7414214 11.6,18.7414214 11.7,18.9414214 C11.8,19.2414214 11,20.7414214 10.8,21.1414214 C9.8,22.8414214 8.4,23.1414214 8.4,23.1414214 C8.7,22.0414214 8.9,21.2414214 9.3,20.5414214 L9.3,20.5414214 Z M18.9,27.5414214 C19,27.3414214 19.3,26.7414214 19.6,26.6414214 C19.8,26.6414214 19.8,26.7414214 19.7,27.0414214 L19.6,27.7414214 C19.6,27.7414214 19.5,27.8414214 19.6,27.8414214 C19.7,27.8414214 19.7,27.8414214 19.7,27.7414214 L20,27.1414214 C20.1,26.8414214 20.2,26.8414214 20.3,26.9414214 C20.5,27.2414214 20.4,27.9414214 20.3,28.1414214 C20.1,28.7414214 19.6,29.1414214 19.1,29.2414214 C18.8,28.8414214 18.7,28.1414214 18.9,27.5414214 L18.9,27.5414214 Z M17.2,26.3414214 C17.3,26.0414214 17.7,25.3414214 18.1,25.3414214 C18.3,25.2414214 18.4,25.3414214 18.2,25.7414214 L17.9,26.8414214 C17.8,26.8414214 17.8,26.9414214 17.9,27.0414214 C17.9,27.0414214 18,26.9414214 18,26.8414214 L18.5,25.9414214 C18.7,25.5414214 18.8,25.5414214 18.9,25.7414214 C19.2,26.0414214 18.9,26.8414214 18.8,27.1414214 C18.5,27.8414214 17.8,28.3414214 17.3,28.4414214 C17,27.9414214 16.9,27.0414214 17.2,26.3414214 L17.2,26.3414214 Z M15.2,29.7414214 C15.3,29.3414214 15.7,28.3414214 16.1,28.3414214 C16.3,28.3414214 16.4,28.3414214 16.3,28.6414214 L15.9,30.2414214 C15.9,30.3414214 15.9,30.4414214 15.9,30.4414214 C16,30.4414214 16,30.3414214 16,30.3414214 L16.6,28.8414214 C16.7,28.5414214 16.8,28.5414214 16.9,28.6414214 C17.2,28.9414214 17,29.9414214 16.9,30.2414214 C16.6,31.1414214 15.8,32.3414214 15.3,32.4414214 C15,32.0414214 15,30.6414214 15.2,29.7414214 L15.2,29.7414214 Z M13.5,28.5414214 C13.7,28.1414214 14.1,27.4414214 14.4,27.4414214 C14.6,27.4414214 14.7,27.5414214 14.6,27.7414214 L14.1,29.4414214 C14,29.5414214 14,29.6414214 14.1,29.6414214 C14.1,29.6414214 14.2,29.5414214 14.2,29.5414214 L14.8,27.9414214 C15,27.6414214 15.1,27.6414214 15.2,27.7414214 C15.4,28.0414214 15.3,28.8414214 15.2,29.1414214 C14.8,30.0414214 14,31.1414214 13.5,31.2414214 C13.1,30.8414214 13.2,29.4414214 13.5,28.5414214 L13.5,28.5414214 Z M11.6,30.4414214 C11.3,30.0414214 11.4,28.4414214 11.7,27.5414214 C11.9,27.1414214 12.3,26.4414214 12.7,26.4414214 C12.8,26.3414214 12.9,26.4414214 12.8,26.7414214 L12.3,28.5414214 C12.3,28.6414214 12.2,28.7414214 12.3,28.7414214 C12.4,28.7414214 12.4,28.6414214 12.4,28.6414214 L13.1,27.0414214 C13.2,26.7414214 13.3,26.7414214 13.5,26.8414214 C13.7,27.1414214 13.6,27.8414214 13.5,28.1414214 C13.1,29.1414214 12.2,30.4414214 11.6,30.4414214 L11.6,30.4414214 Z M11.1,33.0414214 C11.3,32.4414214 11.7,31.0414214 12.1,30.8414214 C12.2,30.8414214 12.3,30.9414214 12.3,31.3414214 L11.9,33.4414214 C11.9,33.4414214 11.9,33.6414214 11.9,33.6414214 C12,33.6414214 12,33.5414214 12.1,33.4414214 L12.6,31.3414214 C12.7,31.0414214 12.8,30.9414214 12.9,31.0414214 C13.2,31.3414214 13,32.9414214 12.9,33.4414214 C12.6,34.7414214 11.9,36.1414214 11.3,36.4414214 C10.9,35.9414214 10.9,34.3414214 11.1,33.0414214 L11.1,33.0414214 Z M10.1,30.2414214 C10.3,30.1414214 10.4,30.2414214 10.3,30.6414214 L10,32.8414214 C10,32.8414214 10,33.0414214 10.1,33.0414214 C10.1,33.0414214 10.2,32.9414214 10.2,32.8414214 L10.6,30.7414214 C10.7,30.3414214 10.9,30.2414214 11,30.4414214 C11.3,30.7414214 11.1,32.2414214 11,32.7414214 C10.8,34.1414214 10.1,35.6414214 9.5,35.9414214 C9.1,35.4414214 9,33.7414214 9.3,32.4414214 C9.4,31.8414214 9.7,30.4414214 10.1,30.2414214 L10.1,30.2414214 Z M10.7,25.1414214 C10.9,25.1414214 11,25.2414214 10.9,25.5414214 L10.4,27.5414214 C10.4,27.6414214 10.4,27.7414214 10.4,27.7414214 C10.5,27.7414214 10.5,27.6414214 10.6,27.6414214 L11.2,25.8414214 C11.3,25.5414214 11.4,25.5414214 11.5,25.6414214 C11.8,25.9414214 11.7,26.8414214 11.6,27.2414214 C11.3,28.3414214 10.4,29.6414214 9.8,29.7414214 C9.4,29.3414214 9.4,27.7414214 9.7,26.6414214 C9.9,26.2414214 10.3,25.2414214 10.7,25.1414214 L10.7,25.1414214 Z M16.3,26.1414214 C16.3,26.1414214 16.4,26.0414214 16.4,25.9414214 L17.7,22.8414214 C17.8,22.4414214 17.9,22.4414214 18,22.5414214 C18.2,22.8414214 17.7,24.4414214 17.5,24.8414214 C17.1,26.1414214 16.2,27.5414214 15.7,27.7414214 C15.5,27.2414214 15.7,25.5414214 16.2,24.3414214 C16.4,23.8414214 17,22.3414214 17.4,22.2414214 C17.5,22.1414214 17.6,22.2414214 17.5,22.6414214 L16.3,25.9414214 C16.3,26.0414214 16.2,26.1414214 16.3,26.1414214 L16.3,26.1414214 Z M14.6,25.1414214 C14.6,25.1414214 14.7,25.0414214 14.7,24.9414214 L16.3,22.0414214 C16.5,21.7414214 16.6,21.7414214 16.7,21.8414214 C16.9,22.2414214 16.3,23.4414214 16.1,23.8414214 C15.5,25.0414214 14.3,26.5414214 13.8,26.6414214 C13.6,26.2414214 14.1,24.2414214 14.7,23.1414214 C15,22.6414214 15.6,21.5414214 16,21.5414214 C16.2,21.4414214 16.2,21.5414214 16.1,21.9414214 L14.6,24.9414214 C14.6,24.9414214 14.5,25.0414214 14.6,25.1414214 L14.6,25.1414214 Z M12.9,23.9414214 C12.9,24.0414214 13,23.9414214 13,23.8414214 L14.7,21.2414214 C14.9,20.8414214 15,20.8414214 15.1,21.0414214 C15.3,21.4414214 14.7,22.5414214 14.5,23.0414214 C13.8,24.1414214 12.7,25.3414214 12,25.5414214 C11.9,24.8414214 12.3,23.1414214 12.9,22.0414214 C13.2,21.6414214 13.9,20.6414214 14.3,20.6414214 C14.5,20.6414214 14.6,20.7414214 14.4,21.0414214 L12.9,23.8414214 C12.8,23.8414214 12.8,23.9414214 12.9,23.9414214 L12.9,23.9414214 Z M11.2,22.7414214 C11.3,22.8414214 11.3,22.7414214 11.4,22.6414214 L12.8,20.1414214 C13,19.8414214 13.2,19.8414214 13.3,19.9414214 C13.5,20.3414214 13,21.5414214 12.7,21.9414214 C12.1,23.1414214 11.1,24.2414214 10.3,24.5414214 C10.2,23.7414214 10.5,22.2414214 11.1,21.0414214 C11.3,20.5414214 12.1,19.5414214 12.5,19.4414214 C12.7,19.4414214 12.7,19.5414214 12.6,19.9414214 L11.2,22.6414214 C11.2,22.6414214 11.1,22.7414214 11.2,22.7414214 L11.2,22.7414214 Z M21.2,28.5414214 C21.3,28.5414214 21.3,28.5414214 21.3,28.4414214 L21.5,27.7414214 C21.6,27.4414214 21.7,27.4414214 21.8,27.5414214 C22.1,27.7414214 22,28.4414214 22,28.6414214 C21.9,29.3414214 21.4,29.8414214 20.9,29.9414214 C20.6,29.6414214 20.4,28.9414214 20.5,28.3414214 C20.5,28.0414214 20.8,27.4414214 21.1,27.3414214 C21.2,27.3414214 21.3,27.3414214 21.3,27.6414214 L21.2,28.4414214 C21.2,28.4414214 21.2,28.5414214 21.2,28.5414214 L21.2,28.5414214 Z M11.4,17.8414214 C12.2,17.7414214 12.9,17.3414214 13.6,17.0414214 C14.5,16.6414214 15.5,16.2414214 16.5,16.2414214 C17.6,16.2414214 18.7,16.4414214 19.6,17.2414214 C20.9,18.4414214 21.2,20.1414214 20.5,21.7414214 C20.5,21.8414214 20.5,21.9414214 20.4,22.0414214 C20.1,22.6414214 20.2,23.1414214 20.7,23.5414214 C21.4,24.3414214 22.3,24.8414214 23.4,24.9414214 C23.6,24.9414214 23.8,24.9414214 24,24.8414214 C24.2,24.8414214 24.3,24.8414214 24.4,24.7414214 C24.7,24.7414214 24.8,24.8414214 24.7,25.0414214 C24.5,25.7414214 24.5,26.6414214 24.8,27.4414214 C24.2,27.3414214 23.9,26.9414214 23.8,26.7414214 C23.7,26.8414214 23.3,27.0414214 23.2,27.1414214 C22.7,27.3414214 22.3,27.1414214 22.2,26.5414214 C22.2,26.4414214 22.1,26.3414214 22.1,26.3414214 C21.9,26.4414214 21.7,26.5414214 21.4,26.6414214 C20.9,26.8414214 20.7,26.5414214 20.6,26.1414214 C20.6,25.9414214 20.7,25.8414214 20.7,25.6414214 C20.4,25.7414214 20.2,25.8414214 20,25.8414214 C19.5,26.0414214 19.3,25.8414214 19.3,25.3414214 C19.3,25.0414214 19.3,24.6414214 19.4,24.3414214 C19.2,24.4414214 19.1,24.5414214 18.9,24.5414214 C18.5,24.8414214 18.2,24.6414214 18.2,24.1414214 C18.2,23.8414214 18.3,23.5414214 18.5,23.2414214 C18.6,22.9414214 19.1,22.0414214 19.2,21.9414214 C18.9,22.0414214 18.7,22.1414214 18.4,22.2414214 C17.9,22.2414214 17.6,21.8414214 17.8,21.3414214 C17.9,20.9414214 18.3,20.3414214 18.5,20.2414214 C18.5,20.2414214 17.7,21.0414214 17.2,21.2414214 C17,21.2414214 16.7,21.2414214 16.5,21.0414214 C16.3,20.8414214 16.3,20.6414214 16.4,20.3414214 C16.5,20.0414214 16.8,19.6414214 17,19.3414214 C16.5,19.7414214 15.9,20.2414214 15.5,20.3414214 C15.3,20.4414214 15.1,20.3414214 15,20.2414214 C14.9,20.1414214 14.8,19.9414214 14.9,19.7414214 C15,19.3414214 15.3,19.0414214 15.5,18.6414214 C15.4,18.7414214 15,19.0414214 14.7,19.2414214 C14.4,19.3414214 14,19.6414214 13.6,19.6414214 C13.3,19.6414214 13.1,19.3414214 13.2,19.0414214 C13.2,18.8414214 13.4,18.3414214 13.5,18.1414214 C12.9,18.3414214 12.1,18.4414214 11.6,18.3414214 C11.3,18.3414214 11,18.3414214 11,18.0414214 C11,17.8414214 11.2,17.8414214 11.4,17.8414214 L11.4,17.8414214 Z M25,25.1414214 C25.1,24.8414214 25.5,23.2414214 25.9,23.3414214 C26,23.3414214 26.1,23.3414214 26,23.9414214 L25.7,25.1414214 C25.7,25.2414214 25.7,25.3414214 25.7,25.4414214 C25.8,25.4414214 25.8,25.3414214 25.9,25.2414214 L26.2,24.3414214 C26.3,23.9414214 26.4,23.8414214 26.5,24.0414214 C26.7,24.3414214 26.6,25.2414214 26.6,25.5414214 C26.3,26.4414214 25.7,27.2414214 25.2,27.5414214 C24.9,27.0414214 24.8,26.0414214 25,25.1414214 L25,25.1414214 Z M26.7,22.1414214 C26.8,21.8414214 27,21.2414214 27.3,21.1414214 C27.5,21.0414214 27.5,21.1414214 27.5,21.4414214 L27.3,22.5414214 C27.2,22.5414214 27.2,22.6414214 27.3,22.6414214 C27.3,22.6414214 27.4,22.6414214 27.4,22.5414214 L27.6,21.9414214 C27.7,21.6414214 27.7,21.6414214 27.9,21.7414214 C28.1,21.9414214 28.1,22.4414214 28,22.6414214 C27.9,23.2414214 27.4,23.7414214 27,23.8414214 C26.7,23.5414214 26.5,22.7414214 26.7,22.1414214 L26.7,22.1414214 Z M26.6,16.5414214 C26.4,16.3414214 26.3,15.8414214 26.3,15.4414214 C26.3,15.2414214 26.4,14.8414214 26.6,14.7414214 C26.7,14.6414214 26.8,14.7414214 26.8,14.9414214 L26.7,15.5414214 C26.7,15.6414214 26.7,15.6414214 26.8,15.6414214 L26.8,15.5414214 L26.9,15.2414214 C26.9,15.0414214 27,15.0414214 27,15.0414214 C27.2,15.1414214 27.2,15.5414214 27.2,15.6414214 C27.2,16.0414214 26.9,16.4414214 26.6,16.5414214 L26.6,16.5414214 Z M25.9,15.4414214 C25.8,14.6414214 24.8,14.3414214 24.7,14.3414214 C24.8,14.3414214 25,14.3414214 25.3,14.2414214 C25.4,14.2414214 25.5,14.2414214 25.6,14.2414214 C25.7,14.2414214 25.7,14.3414214 25.7,14.3414214 L25.7,14.4414214 C25.8,14.5414214 25.9,14.6414214 25.9,14.5414214 C26,14.5414214 26.1,14.4414214 26,14.3414214 L26,14.2414214 C26,14.2414214 26,14.1414214 26,14.1414214 C26,14.0414214 26.1,14.0414214 26.1,14.0414214 C26.3,13.9414214 26.4,13.8414214 26.6,13.7414214 C26.7,13.6414214 26.7,13.6414214 26.8,13.6414214 C26.9,13.6414214 26.9,13.7414214 26.9,13.7414214 L27.7,14.2414214 C27.8,14.3414214 27.8,14.2414214 27.8,14.2414214 L27.8,14.1414214 L27.2,13.4414214 C27.2,13.4414214 27.1,13.4414214 27.1,13.3414214 C27.1,13.2414214 27.1,13.2414214 27.1,13.1414214 C27.3,13.0414214 27.4,12.8414214 27.5,12.6414214 C27.5,12.6414214 27.5,12.5414214 27.6,12.5414214 C27.6,12.5414214 27.7,12.5414214 27.7,12.5414214 L27.8,12.5414214 C27.9,12.5414214 27.9,12.5414214 28,12.4414214 C28,12.3414214 27.9,12.2414214 27.8,12.2414214 C27.8,12.2414214 27.7,12.2414214 27.7,12.1414214 C27.6,12.1414214 27.6,11.9414214 27.7,11.9414214 C27.8,11.9414214 27.9,11.9414214 27.9,12.0414214 C28.1,12.1414214 28.5,12.2414214 28.9,12.3414214 C28.5,12.9414214 27.5,13.0414214 27.5,13.0414214 C27.5,13.0414214 28.4,13.6414214 28.5,14.9414214 C27.1,14.9414214 26.4,14.0414214 26.4,14.0414214 C26.4,14.0414214 26.4,14.7414214 25.9,15.4414214 L25.9,15.4414214 Z M22.9,13.2414214 C22.2,12.6414214 21.9,11.9414214 22.2,11.7414214 C22.5,11.5414214 22.7,11.8414214 23,12.0414214 C23.2,12.2414214 23.4,12.3414214 23.8,12.2414214 C24.2,12.1414214 24.3,11.9414214 24.5,11.7414214 C24.9,11.3414214 25.2,11.8414214 25.8,12.1414214 C26.1,12.2414214 26.8,12.6414214 27.5,11.8414214 C27.4,12.1414214 26.9,13.6414214 25.3,13.9414214 C24.6,14.0414214 23.6,13.9414214 22.9,13.2414214 L22.9,13.2414214 Z M22.7,14.1414214 C21.9,13.9414214 21.4,14.0414214 21.4,14.0414214 C21.4,14.0414214 21.7,13.6414214 22.6,13.8414214 C23,14.0414214 23.4,14.2414214 24,14.2414214 C24,14.2414214 23.6,14.4414214 22.7,14.1414214 L22.7,14.1414214 Z M21,13.5414214 C20.5,13.7414214 19.4,14.3414214 18.3,14.0414214 C17.7,13.8414214 17.4,13.2414214 17.5,12.7414214 C17.5,12.7414214 17.5,13.4414214 18,13.6414214 C18.7,14.0414214 19.6,13.8414214 20.2,13.5414214 C20.9,13.2414214 21.1,13.0414214 21.5,13.1414214 C21.8,13.2414214 22,13.4414214 22,13.4414214 C22,13.4414214 21.6,13.2414214 21,13.5414214 L21,13.5414214 Z M20.6,12.5414214 C19.5,12.4414214 19,12.8414214 19,12.8414214 C19.2,11.4414214 20.8,11.2414214 21.1,11.3414214 C21.2,11.4414214 21.2,11.5414214 21.2,11.5414214 C21.4,11.5414214 21.4,11.3414214 21.4,11.2414214 C21.6,11.1414214 21.8,11.2414214 21.8,11.7414214 C21.8,12.7414214 22.7,13.4414214 22.7,13.4414214 C22.7,13.4414214 21.6,12.6414214 20.6,12.5414214 L20.6,12.5414214 Z M23.8,11.7414214 C23.8,11.9414214 23.6,12.0414214 23.4,12.0414214 C23.2,12.0414214 23,11.9414214 23,11.7414214 C23,11.5414214 23.2,11.3414214 23.4,11.3414214 C23.6,11.3414214 23.8,11.5414214 23.8,11.7414214 L23.8,11.7414214 Z M23.3,10.3414214 C24.2,10.1414214 24.9,10.2414214 27.1,10.9414214 C29.4,11.5414214 30.5,11.0414214 30.5,11.0414214 C29.5,12.0414214 27.3,11.5414214 27.3,11.5414214 C26.9,12.2414214 26.1,12.1414214 25.5,11.6414214 C24.8,11.0414214 24.5,11.0414214 24,11.0414214 C23.7,11.1414214 23.3,11.2414214 23,11.3414214 C22.6,11.5414214 22.2,11.6414214 22.1,11.4414214 C21.9,11.2414214 22.2,10.6414214 23.3,10.3414214 L23.3,10.3414214 Z M30.4,12.0414214 C29.8,12.4414214 29.1,12.2414214 29,12.0414214 C29,11.9414214 29.1,11.8414214 29.4,11.9414214 C29.9,12.1414214 30.4,12.0414214 30.4,12.0414214 L30.4,12.0414214 Z M30.4,12.9414214 C29.9,13.2414214 29.3,13.0414214 29.3,12.9414214 C29.3,12.8414214 29.4,12.7414214 29.6,12.8414214 C30,13.0414214 30.4,12.9414214 30.4,12.9414214 L30.4,12.9414214 Z M30,14.7414214 C29.7,14.7414214 29.2,14.7414214 28.8,14.3414214 C28.6,14.1414214 28.2,13.6414214 28.3,13.3414214 C28.3,13.2414214 28.4,13.2414214 28.6,13.4414214 L29.1,13.9414214 C29.2,13.9414214 29.2,14.0414214 29.3,14.0414214 C29.3,13.9414214 29.2,13.9414214 29.2,13.8414214 L28.7,13.2414214 C28.5,12.9414214 28.5,12.8414214 28.6,12.8414214 C28.9,12.8414214 29.4,13.2414214 29.5,13.4414214 C29.8,13.8414214 30.1,14.2414214 30,14.7414214 L30,14.7414214 Z M30.6,16.0414214 L30.4,15.5414214 C30.3,15.2414214 30.4,15.2414214 30.5,15.2414214 C30.8,15.2414214 31,15.7414214 31.1,15.9414214 C31.4,16.5414214 31.4,17.6414214 31.2,17.9414214 C30.6,17.5414214 30.1,16.8414214 29.9,16.2414214 C29.8,15.9414214 29.5,15.2414214 29.8,15.0414214 C29.8,14.9414214 29.9,14.9414214 30.1,15.2414214 L30.5,16.0414214 C30.5,16.1414214 30.5,16.2414214 30.6,16.2414214 C30.6,16.2414214 30.6,16.1414214 30.6,16.0414214 L30.6,16.0414214 Z M31.5,19.2414214 L31.4,18.4414214 C31.3,18.2414214 31.4,18.1414214 31.5,18.2414214 C31.8,18.2414214 32,18.8414214 32,18.9414214 C32.1,19.4414214 31.9,20.0414214 31.7,20.3414214 C31.3,20.2414214 30.9,19.7414214 30.8,19.2414214 C30.8,19.0414214 30.7,18.5414214 30.9,18.3414214 C31,18.2414214 31.1,18.2414214 31.2,18.5414214 L31.4,19.2414214 C31.4,19.2414214 31.4,19.3414214 31.5,19.3414214 C31.5,19.3414214 31.5,19.2414214 31.5,19.2414214 L31.5,19.2414214 Z M32.2,22.7414214 C32,21.9414214 31.4,21.9414214 31.1,21.5414214 C30.7,21.0414214 31.2,20.4414214 31.7,20.7414214 C31.9,20.8414214 32.1,21.1414214 32.1,21.4414214 C32.2,21.7414214 32.2,22.2414214 32.2,22.7414214 L32.2,22.7414214 Z M32.4,27.0414214 C32.4,27.1414214 32.4,27.2414214 32.5,27.2414214 C32.6,27.2414214 32.6,27.1414214 32.6,27.0414214 L32.7,25.1414214 C32.7,24.6414214 32.9,24.5414214 33.1,24.6414214 C33.5,24.9414214 33.7,26.0414214 33.7,26.4414214 C33.7,27.4414214 33.1,28.6414214 32.5,29.0414214 C31.8,28.6414214 31.3,27.4414214 31.3,26.4414214 C31.3,26.0414214 31.4,24.9414214 31.9,24.6414214 C32.1,24.5414214 32.2,24.6414214 32.3,25.1414214 L32.4,27.0414214 Z M32.9,21.4414214 C32.9,21.1414214 33.1,20.8414214 33.3,20.7414214 C33.8,20.4414214 34.2,21.0414214 33.9,21.5414214 C33.6,21.9414214 33,21.9414214 32.7,22.7414214 C32.7,22.2414214 32.8,21.7414214 32.9,21.4414214 L32.9,21.4414214 Z M33,18.9414214 C33,18.8414214 33.2,18.2414214 33.4,18.2414214 C33.5,18.1414214 33.6,18.2414214 33.6,18.4414214 L33.5,19.2414214 C33.5,19.2414214 33.5,19.3414214 33.5,19.3414214 C33.6,19.3414214 33.6,19.2414214 33.6,19.2414214 L33.8,18.5414214 C33.9,18.2414214 34,18.2414214 34,18.3414214 C34.2,18.5414214 34.2,19.0414214 34.2,19.2414214 C34.1,19.7414214 33.7,20.2414214 33.3,20.3414214 C33,20.0414214 32.8,19.4414214 33,18.9414214 L33,18.9414214 Z M33.8,15.9414214 C33.9,15.7414214 34.1,15.2414214 34.4,15.2414214 C34.6,15.2414214 34.6,15.2414214 34.5,15.5414214 L34.4,16.0414214 C34.4,16.1414214 34.3,16.2414214 34.4,16.2414214 C34.4,16.2414214 34.5,16.1414214 34.5,16.0414214 L34.9,15.2414214 C35,14.9414214 35.1,14.9414214 35.2,15.0414214 C35.4,15.2414214 35.2,15.9414214 35.1,16.2414214 C34.9,16.8414214 34.3,17.5414214 33.7,17.9414214 C33.6,17.6414214 33.6,16.5414214 33.8,15.9414214 L33.8,15.9414214 Z M35.4,13.4414214 C35.6,13.2414214 36,12.8414214 36.3,12.8414214 C36.4,12.8414214 36.5,12.9414214 36.3,13.2414214 L35.8,13.8414214 C35.7,13.9414214 35.7,13.9414214 35.7,14.0414214 C35.8,14.0414214 35.8,13.9414214 35.9,13.9414214 L36.3,13.4414214 C36.5,13.2414214 36.6,13.2414214 36.7,13.3414214 C36.8,13.6414214 36.3,14.1414214 36.2,14.3414214 C35.7,14.7414214 35.3,14.7414214 34.9,14.7414214 C34.9,14.2414214 35.1,13.8414214 35.4,13.4414214 L35.4,13.4414214 Z M34.6,12.9414214 C34.6,12.9414214 35,13.0414214 35.4,12.8414214 C35.6,12.7414214 35.7,12.8414214 35.7,12.9414214 C35.7,13.0414214 35.1,13.2414214 34.6,12.9414214 L34.6,12.9414214 Z M34.6,12.0414214 C34.6,12.0414214 35.1,12.1414214 35.6,11.9414214 C35.8,11.8414214 35.9,11.9414214 35.9,12.0414214 C35.9,12.2414214 35.1,12.4414214 34.6,12.0414214 L34.6,12.0414214 Z M34.4,11.0414214 C34.4,11.0414214 35.6,11.5414214 37.8,10.9414214 C40.1,10.2414214 40.7,10.1414214 41.7,10.3414214 C42.8,10.6414214 43.1,11.2414214 42.9,11.4414214 C42.8,11.6414214 42.4,11.5414214 41.9,11.3414214 C41.6,11.2414214 41.3,11.1414214 41,11.0414214 C40.5,11.0414214 40.2,11.0414214 39.5,11.6414214 C38.8,12.1414214 38.1,12.2414214 37.6,11.5414214 C37.6,11.5414214 35.4,12.0414214 34.4,11.0414214 L34.4,11.0414214 Z M43.5,11.2414214 C43.6,11.3414214 43.6,11.5414214 43.7,11.5414214 C43.8,11.5414214 43.8,11.4414214 43.9,11.3414214 C44.1,11.2414214 45.8,11.4414214 46,12.8414214 C46,12.8414214 45.4,12.4414214 44.4,12.5414214 C43.4,12.6414214 42.2,13.4414214 42.2,13.4414214 C42.2,13.4414214 43.2,12.7414214 43.1,11.7414214 C43.1,11.2414214 43.4,11.1414214 43.5,11.2414214 L43.5,11.2414214 Z M44.8,13.5414214 C45.4,13.8414214 46.3,14.0414214 46.9,13.6414214 C47.5,13.4414214 47.4,12.7414214 47.4,12.7414214 C47.6,13.2414214 47.3,13.8414214 46.7,14.0414214 C45.6,14.3414214 44.5,13.7414214 44,13.5414214 C43.4,13.2414214 43,13.4414214 43,13.4414214 C43,13.4414214 43.1,13.2414214 43.4,13.1414214 C43.9,13.0414214 44.1,13.2414214 44.8,13.5414214 L44.8,13.5414214 Z M43.6,14.0414214 C43.6,14.0414214 43.1,13.9414214 42.2,14.1414214 C41.4,14.4414214 40.9,14.2414214 40.9,14.2414214 C41.5,14.2414214 42,14.0414214 42.3,13.8414214 C43.3,13.6414214 43.6,14.0414214 43.6,14.0414214 L43.6,14.0414214 Z M41.1,11.7414214 C41.1,11.5414214 41.3,11.3414214 41.5,11.3414214 C41.7,11.3414214 41.9,11.5414214 41.9,11.7414214 C41.9,11.9414214 41.7,12.0414214 41.5,12.0414214 C41.3,12.0414214 41.1,11.9414214 41.1,11.7414214 L41.1,11.7414214 Z M39.7,13.9414214 C38.1,13.6414214 37.6,12.1414214 37.5,11.8414214 C38.1,12.6414214 38.9,12.2414214 39.2,12.1414214 C39.8,11.8414214 40.1,11.3414214 40.5,11.7414214 C40.6,11.9414214 40.8,12.1414214 41.2,12.2414214 C41.6,12.3414214 41.8,12.2414214 42,12.0414214 C42.2,11.8414214 42.4,11.5414214 42.7,11.7414214 C43,11.9414214 42.7,12.6414214 42.1,13.2414214 C41.3,13.9414214 40.4,14.0414214 39.7,13.9414214 L39.7,13.9414214 Z M39,15.4414214 C38.6,14.7414214 38.6,14.0414214 38.6,14.0414214 C38.6,14.0414214 37.9,14.9414214 36.5,14.9414214 C36.5,13.6414214 37.4,13.0414214 37.4,13.0414214 C37.4,13.0414214 36.5,12.9414214 36.1,12.3414214 C36.5,12.2414214 36.8,12.1414214 37,12.0414214 C37.1,11.9414214 37.2,11.9414214 37.3,11.9414214 C37.3,11.9414214 37.4,12.1414214 37.3,12.1414214 C37.2,12.2414214 37.1,12.2414214 37.1,12.2414214 C37,12.2414214 37,12.3414214 37,12.4414214 C37,12.5414214 37.1,12.5414214 37.2,12.5414214 L37.3,12.5414214 L37.4,12.5414214 C37.4,12.5414214 37.5,12.6414214 37.5,12.6414214 C37.6,12.8414214 37.7,13.0414214 37.8,13.1414214 C37.9,13.2414214 37.9,13.2414214 37.9,13.3414214 C37.9,13.4414214 37.8,13.4414214 37.8,13.4414214 L37.2,14.1414214 C37.1,14.2414214 37.1,14.2414214 37.2,14.2414214 C37.2,14.2414214 37.2,14.3414214 37.3,14.2414214 L38,13.7414214 C38,13.7414214 38.1,13.6414214 38.2,13.6414214 C38.3,13.6414214 38.3,13.6414214 38.4,13.7414214 C38.5,13.8414214 38.7,13.9414214 38.8,14.0414214 C38.9,14.0414214 39,14.0414214 39,14.1414214 C39,14.1414214 39,14.2414214 39,14.2414214 L38.9,14.3414214 C38.9,14.4414214 38.9,14.5414214 39,14.5414214 C39.1,14.6414214 39.2,14.5414214 39.2,14.4414214 L39.3,14.3414214 C39.3,14.3414214 39.3,14.2414214 39.4,14.2414214 C39.5,14.2414214 39.6,14.2414214 39.6,14.2414214 C39.9,14.3414214 40.2,14.3414214 40.3,14.3414214 C40.1,14.3414214 39.2,14.6414214 39,15.4414214 L39,15.4414214 Z M38.3,16.5414214 C38.1,16.4414214 37.8,16.0414214 37.7,15.6414214 C37.7,15.5414214 37.8,15.1414214 37.9,15.0414214 C38,15.0414214 38.1,15.0414214 38.1,15.2414214 L38.2,15.5414214 C38.2,15.6414214 38.2,15.6414214 38.2,15.6414214 C38.3,15.6414214 38.2,15.6414214 38.2,15.5414214 L38.2,14.9414214 C38.2,14.7414214 38.2,14.6414214 38.3,14.7414214 C38.5,14.8414214 38.6,15.2414214 38.7,15.4414214 C38.7,15.8414214 38.5,16.3414214 38.3,16.5414214 L38.3,16.5414214 Z M37.6,28.0414214 C37.1,27.8414214 36.5,26.9414214 36.4,26.1414214 C36.3,25.8414214 36.3,24.9414214 36.6,24.6414214 C36.7,24.4414214 36.9,24.5414214 36.9,24.9414214 L37.2,26.2414214 C37.3,26.3414214 37.3,26.4414214 37.4,26.4414214 C37.4,26.4414214 37.4,26.3414214 37.4,26.2414214 L37.2,24.5414214 C37.1,24.1414214 37.2,24.0414214 37.4,24.0414214 C37.8,24.2414214 38.1,25.4414214 38.2,25.7414214 C38.3,26.5414214 38,27.6414214 37.6,28.0414214 L37.6,28.0414214 Z M35.5,29.9414214 C35.5,29.6414214 35.5,28.6414214 35.9,28.3414214 C36.1,28.2414214 36.2,28.2414214 36.3,28.6414214 L36.5,29.9414214 C36.6,30.0414214 36.6,30.1414214 36.7,30.1414214 C36.8,30.1414214 36.7,30.0414214 36.7,29.9414214 L36.7,28.6414214 C36.7,28.1414214 36.8,28.0414214 37,28.1414214 C37.4,28.3414214 37.7,29.2414214 37.7,29.5414214 C37.8,30.4414214 37.4,31.3414214 36.8,31.7414214 C36.2,31.5414214 35.6,30.8414214 35.5,29.9414214 L35.5,29.9414214 Z M34.3,33.5414214 C34.3,33.1414214 34.3,32.3414214 34.8,32.1414214 C35,32.0414214 35.2,32.1414214 35.2,32.5414214 L35.4,33.7414214 C35.4,33.8414214 35.4,33.9414214 35.5,33.9414214 C35.6,33.9414214 35.6,33.8414214 35.6,33.7414214 L35.7,32.1414214 C35.8,31.7414214 35.9,31.6414214 36.1,31.7414214 C36.6,31.9414214 36.8,33.0414214 36.8,33.3414214 C36.8,34.3414214 36.2,35.4414214 35.5,35.8414214 C34.8,35.4414214 34.3,34.4414214 34.3,33.5414214 L34.3,33.5414214 Z M34.2,39.1414214 C34.3,38.9414214 34.7,38.5414214 35.1,38.5414214 C35.2,38.5414214 35.3,38.6414214 35.1,38.9414214 L34.7,39.8414214 C34.7,39.9414214 34.6,40.0414214 34.7,40.0414214 C34.7,40.0414214 34.8,40.0414214 34.8,39.9414214 L35.4,39.0414214 C35.6,38.7414214 35.7,38.8414214 35.8,38.9414214 C36,39.2414214 35.7,40.0414214 35.5,40.2414214 C35.2,40.8414214 34.5,41.1414214 34,41.2414214 C33.7,40.7414214 33.8,39.8414214 34.2,39.1414214 L34.2,39.1414214 Z M33,36.6414214 C33,36.3414214 33.3,35.4414214 33.7,35.3414214 C33.9,35.2414214 34,35.3414214 33.9,35.7414214 L33.9,36.8414214 C33.9,36.8414214 33.9,36.9414214 33.9,36.9414214 C34,37.0414214 34,36.9414214 34.1,36.8414214 L34.3,35.7414214 C34.4,35.4414214 34.5,35.3414214 34.6,35.4414214 C35,35.7414214 35,36.6414214 35,36.8414214 C34.8,37.6414214 34.3,38.1414214 33.7,38.3414214 C33.3,38.0414214 32.9,37.3414214 33,36.6414214 L33,36.6414214 Z M32,38.2414214 C32.1,38.2414214 32.2,38.2414214 32.3,38.6414214 L32.4,39.7414214 C32.4,39.7414214 32.4,39.9414214 32.5,39.9414214 C32.5,39.9414214 32.5,39.7414214 32.5,39.7414214 L32.6,38.6414214 C32.7,38.2414214 32.8,38.2414214 33,38.2414214 C33.4,38.4414214 33.5,39.3414214 33.5,39.6414214 C33.5,40.3414214 33,41.6414214 32.5,41.9414214 C31.9,41.6414214 31.4,40.3414214 31.4,39.6414214 C31.4,39.3414214 31.5,38.4414214 32,38.2414214 L32,38.2414214 Z M30,36.8414214 C30,36.6414214 30,35.7414214 30.3,35.4414214 C30.5,35.3414214 30.6,35.4414214 30.7,35.7414214 L30.9,36.8414214 C30.9,36.9414214 30.9,37.0414214 31,36.9414214 C31.1,36.9414214 31.1,36.8414214 31.1,36.8414214 L31,35.7414214 C31,35.3414214 31.1,35.2414214 31.3,35.3414214 C31.7,35.4414214 31.9,36.3414214 32,36.6414214 C32.1,37.3414214 31.7,38.0414214 31.2,38.3414214 C30.7,38.1414214 30.1,37.6414214 30,36.8414214 L30,36.8414214 Z M30.3,39.8414214 L29.8,38.9414214 C29.7,38.6414214 29.8,38.5414214 29.9,38.5414214 C30.3,38.5414214 30.7,38.9414214 30.8,39.1414214 C31.2,39.8414214 31.2,40.7414214 31,41.2414214 C30.4,41.1414214 29.8,40.8414214 29.4,40.2414214 C29.3,40.0414214 29,39.2414214 29.2,38.9414214 C29.3,38.8414214 29.4,38.7414214 29.6,39.0414214 L30.1,39.9414214 C30.2,40.0414214 30.2,40.0414214 30.3,40.0414214 C30.4,40.0414214 30.3,39.9414214 30.3,39.8414214 L30.3,39.8414214 Z M28.8,31.7414214 C29,31.6414214 29.2,31.7414214 29.2,32.1414214 L29.3,33.7414214 C29.4,33.8414214 29.3,33.9414214 29.5,33.9414214 C29.6,33.9414214 29.6,33.8414214 29.6,33.7414214 L29.7,32.5414214 C29.8,32.1414214 29.9,32.0414214 30.1,32.1414214 C30.6,32.3414214 30.7,33.1414214 30.7,33.5414214 C30.7,34.4414214 30.2,35.4414214 29.5,35.8414214 C28.8,35.4414214 28.2,34.3414214 28.2,33.3414214 C28.2,33.0414214 28.3,31.9414214 28.8,31.7414214 L28.8,31.7414214 Z M27.3,29.5414214 C27.3,29.2414214 27.5,28.3414214 28,28.1414214 C28.2,28.0414214 28.3,28.1414214 28.3,28.6414214 L28.2,29.9414214 C28.2,30.0414214 28.2,30.1414214 28.3,30.1414214 C28.4,30.1414214 28.4,30.0414214 28.4,29.9414214 L28.7,28.6414214 C28.8,28.2414214 28.9,28.2414214 29,28.3414214 C29.4,28.6414214 29.5,29.6414214 29.4,29.9414214 C29.3,30.8414214 28.7,31.5414214 28.1,31.7414214 C27.6,31.3414214 27.2,30.4414214 27.3,29.5414214 L27.3,29.5414214 Z M27.4,19.6414214 C27.4,19.4414214 27.5,18.8414214 27.8,18.7414214 C27.9,18.6414214 28,18.7414214 28,18.9414214 L28,19.8414214 C28,19.8414214 28,19.9414214 28,19.9414214 C28.1,19.9414214 28.1,19.8414214 28.1,19.8414214 L28.3,19.0414214 C28.3,18.7414214 28.4,18.6414214 28.5,18.7414214 C28.8,18.9414214 28.8,19.5414214 28.8,19.7414214 C28.7,20.3414214 28.3,20.9414214 27.9,21.1414214 C27.6,20.8414214 27.3,20.2414214 27.4,19.6414214 L27.4,19.6414214 Z M31.1,24.9414214 C30.7,24.6414214 30.3,23.8414214 30.3,23.2414214 C30.3,22.9414214 30.4,22.2414214 30.7,22.0414214 C30.9,21.9414214 31,22.0414214 31,22.3414214 L31,23.5414214 C31.1,23.5414214 31.1,23.6414214 31.1,23.6414214 C31.2,23.6414214 31.2,23.5414214 31.2,23.5414214 L31.2,22.8414214 C31.3,22.5414214 31.4,22.4414214 31.5,22.5414214 C31.8,22.6414214 32,23.1414214 32,23.4414214 C32,24.0414214 31.6,24.6414214 31.1,24.9414214 L31.1,24.9414214 Z M28.9,26.0414214 C29,25.7414214 29.2,24.8414214 29.6,24.6414214 C29.8,24.5414214 29.9,24.6414214 29.9,25.0414214 L29.8,26.8414214 C29.8,26.9414214 29.8,27.1414214 29.9,27.1414214 C29.9,27.1414214 30,27.0414214 30,26.9414214 L30.3,25.1414214 C30.3,24.7414214 30.5,24.6414214 30.6,24.8414214 C31,25.1414214 31,26.1414214 31,26.4414214 C30.9,27.3414214 30.3,28.2414214 29.7,28.5414214 C29.2,28.0414214 28.8,26.9414214 28.9,26.0414214 L28.9,26.0414214 Z M29.1,23.3414214 C29.2,23.3414214 29.2,23.2414214 29.2,23.1414214 L29.5,21.9414214 C29.6,21.5414214 29.7,21.5414214 29.8,21.6414214 C30.1,21.8414214 30.1,22.6414214 30.1,22.9414214 C29.9,23.7414214 29.4,24.4414214 28.9,24.7414214 C28.4,24.3414214 28.2,23.4414214 28.3,22.6414214 C28.3,22.4414214 28.6,21.6414214 28.9,21.4414214 C29.1,21.4414214 29.2,21.4414214 29.2,21.8414214 L29,23.1414214 C29,23.1414214 29,23.2414214 29.1,23.3414214 L29.1,23.3414214 Z M32,30.0414214 C32,30.9414214 31.4,31.9414214 30.7,32.3414214 C30.2,31.8414214 29.7,30.8414214 29.8,29.9414214 C29.8,29.6414214 30,28.6414214 30.5,28.4414214 C30.6,28.3414214 30.8,28.4414214 30.8,28.8414214 L30.8,30.4414214 C30.8,30.5414214 30.8,30.7414214 30.9,30.7414214 C31,30.7414214 31,30.5414214 31,30.4414214 L31.2,28.9414214 C31.3,28.4414214 31.4,28.4414214 31.5,28.5414214 C32,28.7414214 32,29.7414214 32,30.0414214 L32,30.0414214 Z M33.1,31.7414214 C33.6,32.0414214 33.8,33.0414214 33.8,33.4414214 C33.8,34.4414214 33.2,35.4414214 32.4,35.9414214 C31.7,35.4414214 31,34.4414214 31,33.4414214 C31,33.0414214 31.2,32.0414214 31.8,31.7414214 C32,31.6414214 32.1,31.7414214 32.2,32.1414214 L32.3,34.0414214 C32.3,34.1414214 32.3,34.2414214 32.4,34.2414214 C32.6,34.2414214 32.5,34.1414214 32.6,34.0414214 L32.7,32.1414214 C32.7,31.7414214 32.9,31.6414214 33.1,31.7414214 L33.1,31.7414214 Z M34,30.4414214 C34,30.5414214 34,30.7414214 34.1,30.7414214 C34.2,30.7414214 34.2,30.5414214 34.2,30.4414214 L34.2,28.8414214 C34.2,28.4414214 34.3,28.3414214 34.5,28.4414214 C35,28.6414214 35.2,29.6414214 35.2,29.9414214 C35.2,30.8414214 34.8,31.8414214 34.2,32.3414214 C33.6,31.9414214 33,30.9414214 32.9,30.0414214 C32.9,29.7414214 33,28.7414214 33.4,28.5414214 C33.6,28.4414214 33.7,28.4414214 33.8,28.9414214 L34,30.4414214 Z M34.7,23.2414214 C34.7,23.8414214 34.3,24.6414214 33.8,24.9414214 C33.4,24.6414214 33,24.0414214 33,23.4414214 C33,23.1414214 33.1,22.6414214 33.5,22.5414214 C33.6,22.4414214 33.7,22.5414214 33.7,22.8414214 L33.8,23.5414214 C33.8,23.5414214 33.8,23.6414214 33.8,23.6414214 C33.9,23.6414214 33.9,23.5414214 33.9,23.5414214 L34,22.3414214 C34,22.0414214 34.1,21.9414214 34.2,22.0414214 C34.6,22.2414214 34.7,22.9414214 34.7,23.2414214 L34.7,23.2414214 Z M36.2,19.7414214 C36.2,19.5414214 36.2,18.9414214 36.5,18.7414214 C36.6,18.6414214 36.6,18.7414214 36.7,19.0414214 L36.8,19.8414214 C36.9,19.8414214 36.9,19.9414214 36.9,19.9414214 C37,19.9414214 37,19.8414214 37,19.8414214 L37,18.9414214 C36.9,18.7414214 37,18.6414214 37.1,18.7414214 C37.4,18.8414214 37.6,19.4414214 37.6,19.6414214 C37.7,20.2414214 37.4,20.8414214 37,21.1414214 C36.6,20.9414214 36.2,20.3414214 36.2,19.7414214 L36.2,19.7414214 Z M34.9,22.9414214 C34.9,22.6414214 34.8,21.8414214 35.2,21.6414214 C35.3,21.5414214 35.4,21.5414214 35.5,21.9414214 L35.8,23.1414214 C35.8,23.2414214 35.8,23.3414214 35.9,23.3414214 C36,23.2414214 35.9,23.1414214 35.9,23.1414214 L35.8,21.8414214 C35.8,21.4414214 35.9,21.4414214 36,21.4414214 C36.4,21.6414214 36.6,22.4414214 36.7,22.6414214 C36.8,23.4414214 36.5,24.3414214 36.1,24.7414214 C35.6,24.4414214 35,23.7414214 34.9,22.9414214 L34.9,22.9414214 Z M35.2,26.8414214 L35.1,25.0414214 C35.1,24.6414214 35.2,24.5414214 35.3,24.6414214 C35.8,24.8414214 36,25.7414214 36,26.0414214 C36.1,26.9414214 35.8,28.0414214 35.3,28.5414214 C34.7,28.2414214 34.1,27.3414214 34,26.4414214 C34,26.1414214 34,25.1414214 34.3,24.8414214 C34.5,24.6414214 34.6,24.7414214 34.7,25.1414214 L35,26.9414214 C35,27.0414214 35,27.1414214 35.1,27.1414214 C35.2,27.1414214 35.2,26.9414214 35.2,26.8414214 L35.2,26.8414214 Z M37.3,17.3414214 L37.3,17.3414214 C37.3,17.3414214 37.4,17.2414214 37.4,17.2414214 L37.5,16.7414214 C37.7,16.4414214 37.7,16.4414214 37.8,16.5414214 C38.1,16.6414214 38,17.2414214 37.9,17.4414214 C37.7,18.0414214 37.2,18.2414214 36.9,18.3414214 C36.6,17.9414214 36.6,17.4414214 36.8,16.9414214 C36.8,16.7414214 37,16.0414214 37.3,15.9414214 C37.5,15.9414214 37.5,15.9414214 37.5,16.2414214 L37.3,17.1414214 C37.3,17.2414214 37.2,17.3414214 37.3,17.3414214 L37.3,17.3414214 Z M35.9,16.7414214 C35.9,16.7414214 35.9,16.6414214 36,16.6414214 L36.3,15.7414214 C36.4,15.4414214 36.5,15.4414214 36.6,15.5414214 C36.8,15.7414214 36.7,16.4414214 36.6,16.6414214 C36.4,17.2414214 35.9,17.8414214 35.5,18.0414214 C35.2,17.6414214 35.1,16.8414214 35.3,16.2414214 C35.4,16.0414214 35.7,15.3414214 36,15.3414214 C36.1,15.2414214 36.2,15.3414214 36.1,15.6414214 L35.9,16.5414214 C35.8,16.6414214 35.8,16.7414214 35.9,16.7414214 L35.9,16.7414214 Z M35,20.0414214 C35.1,20.0414214 35.1,19.9414214 35.1,19.9414214 L35.4,18.8414214 C35.5,18.4414214 35.6,18.4414214 35.7,18.5414214 C36,18.8414214 35.9,19.6414214 35.9,19.8414214 C35.7,20.6414214 35.2,21.3414214 34.7,21.6414214 C34.4,21.2414214 34.2,20.3414214 34.3,19.5414214 C34.4,19.3414214 34.6,18.5414214 35,18.4414214 C35.1,18.3414214 35.2,18.4414214 35.1,18.7414214 L35,19.8414214 C35,19.9414214 35,20.0414214 35,20.0414214 L35,20.0414214 Z M30,19.8414214 L29.8,18.7414214 C29.8,18.4414214 29.9,18.3414214 30,18.4414214 C30.4,18.5414214 30.6,19.3414214 30.7,19.5414214 C30.8,20.3414214 30.6,21.2414214 30.2,21.6414214 C29.7,21.3414214 29.2,20.6414214 29.1,19.8414214 C29,19.6414214 29,18.8414214 29.2,18.5414214 C29.3,18.4414214 29.5,18.4414214 29.5,18.8414214 L29.8,19.9414214 C29.8,19.9414214 29.9,20.0414214 29.9,20.0414214 C30,20.0414214 30,19.9414214 30,19.8414214 L30,19.8414214 Z M29.1,16.5414214 L28.9,15.6414214 C28.8,15.3414214 28.9,15.2414214 29,15.3414214 C29.3,15.3414214 29.6,16.0414214 29.7,16.2414214 C29.9,16.8414214 29.8,17.6414214 29.5,18.0414214 C29.1,17.8414214 28.5,17.2414214 28.3,16.6414214 C28.3,16.4414214 28.2,15.7414214 28.4,15.5414214 C28.4,15.4414214 28.5,15.4414214 28.6,15.7414214 L29,16.6414214 C29,16.6414214 29,16.7414214 29.1,16.7414214 C29.1,16.7414214 29.1,16.6414214 29.1,16.5414214 L29.1,16.5414214 Z M27.7,17.1414214 L27.5,16.2414214 C27.4,15.9414214 27.5,15.9414214 27.6,15.9414214 C27.9,16.0414214 28.2,16.7414214 28.2,16.9414214 C28.3,17.4414214 28.3,17.9414214 28.1,18.3414214 C27.7,18.2414214 27.3,18.0414214 27.1,17.4414214 C27,17.2414214 26.9,16.6414214 27.1,16.5414214 C27.2,16.4414214 27.3,16.4414214 27.4,16.7414214 L27.6,17.2414214 C27.6,17.2414214 27.6,17.3414214 27.7,17.3414214 C27.7,17.3414214 27.7,17.2414214 27.7,17.1414214 L27.7,17.1414214 Z M27.6,26.4414214 C27.7,26.4414214 27.7,26.3414214 27.7,26.2414214 L28,24.9414214 C28.1,24.5414214 28.2,24.4414214 28.4,24.6414214 C28.7,24.9414214 28.6,25.8414214 28.6,26.1414214 C28.5,26.9414214 27.9,27.8414214 27.4,28.0414214 C27,27.6414214 26.7,26.5414214 26.8,25.7414214 C26.9,25.4414214 27.2,24.2414214 27.6,24.0414214 C27.7,24.0414214 27.8,24.1414214 27.8,24.5414214 L27.6,26.2414214 C27.6,26.3414214 27.5,26.4414214 27.6,26.4414214 L27.6,26.4414214 Z M38.3,22.1414214 C38.4,22.7414214 38.3,23.5414214 38,23.8414214 C37.6,23.7414214 37.1,23.2414214 36.9,22.6414214 C36.9,22.4414214 36.9,21.9414214 37.1,21.7414214 C37.2,21.6414214 37.3,21.6414214 37.4,21.9414214 L37.6,22.5414214 C37.6,22.6414214 37.6,22.6414214 37.7,22.6414214 C37.7,22.6414214 37.7,22.5414214 37.7,22.5414214 L37.5,21.4414214 C37.4,21.1414214 37.5,21.0414214 37.6,21.1414214 C37.9,21.2414214 38.2,21.8414214 38.3,22.1414214 L38.3,22.1414214 Z M38.8,24.3414214 L39.1,25.2414214 C39.1,25.3414214 39.1,25.4414214 39.2,25.4414214 C39.3,25.3414214 39.3,25.2414214 39.2,25.1414214 L39,23.9414214 C38.9,23.3414214 38.9,23.3414214 39,23.3414214 C39.4,23.2414214 39.8,24.8414214 39.9,25.1414214 C40.1,26.0414214 40.1,27.0414214 39.7,27.5414214 C39.2,27.2414214 38.6,26.4414214 38.4,25.5414214 C38.3,25.2414214 38.2,24.3414214 38.5,24.0414214 C38.6,23.8414214 38.7,23.9414214 38.8,24.3414214 L38.8,24.3414214 Z M43.8,28.4414214 L43.7,27.6414214 C43.7,27.3414214 43.7,27.3414214 43.9,27.3414214 C44.2,27.4414214 44.4,28.0414214 44.5,28.3414214 C44.6,28.9414214 44.4,29.6414214 44,29.9414214 C43.6,29.8414214 43.1,29.3414214 43,28.6414214 C42.9,28.4414214 42.9,27.7414214 43.1,27.5414214 C43.2,27.4414214 43.3,27.4414214 43.4,27.7414214 L43.6,28.4414214 C43.7,28.5414214 43.7,28.5414214 43.7,28.5414214 C43.8,28.5414214 43.8,28.4414214 43.8,28.4414214 L43.8,28.4414214 Z M40.2,25.0414214 C40.2,24.8414214 40.3,24.7414214 40.5,24.7414214 C40.7,24.8414214 40.8,24.8414214 40.9,24.8414214 C41.1,24.9414214 41.4,24.9414214 41.6,24.9414214 C42.7,24.8414214 43.6,24.3414214 44.3,23.5414214 C44.7,23.1414214 44.9,22.6414214 44.5,22.0414214 C44.5,21.9414214 44.5,21.8414214 44.4,21.7414214 C43.7,20.1414214 44.1,18.4414214 45.3,17.2414214 C46.2,16.4414214 47.3,16.2414214 48.5,16.2414214 C49.5,16.2414214 50.4,16.6414214 51.3,17.0414214 C52.1,17.3414214 52.8,17.7414214 53.6,17.8414214 C53.7,17.8414214 54,17.8414214 54,18.0414214 C54,18.3414214 53.6,18.3414214 53.3,18.3414214 C52.8,18.4414214 52,18.3414214 51.4,18.1414214 C51.6,18.3414214 51.8,18.8414214 51.8,19.0414214 C51.8,19.3414214 51.7,19.6414214 51.3,19.6414214 C51,19.6414214 50.6,19.3414214 50.3,19.2414214 C50,19.0414214 49.6,18.7414214 49.4,18.6414214 C49.7,19.0414214 50,19.3414214 50.1,19.7414214 C50.1,19.9414214 50.1,20.1414214 50,20.2414214 C49.9,20.3414214 49.7,20.4414214 49.5,20.3414214 C49,20.2414214 48.4,19.7414214 48,19.3414214 C48.2,19.6414214 48.4,20.0414214 48.5,20.3414214 C48.6,20.6414214 48.6,20.8414214 48.5,21.0414214 C48.3,21.2414214 48,21.2414214 47.8,21.2414214 C47.3,21.0414214 46.5,20.2414214 46.5,20.2414214 C46.6,20.3414214 47,20.9414214 47.2,21.3414214 C47.4,21.8414214 47.1,22.2414214 46.5,22.2414214 C46.2,22.1414214 46,22.0414214 45.8,21.9414214 C45.8,22.0414214 46.4,22.9414214 46.5,23.2414214 C46.6,23.5414214 46.7,23.8414214 46.7,24.1414214 C46.8,24.6414214 46.5,24.8414214 46,24.5414214 C45.9,24.5414214 45.8,24.4414214 45.6,24.3414214 C45.6,24.6414214 45.7,25.0414214 45.7,25.3414214 C45.7,25.8414214 45.4,26.0414214 45,25.8414214 C44.7,25.8414214 44.5,25.7414214 44.3,25.6414214 C44.3,25.8414214 44.3,25.9414214 44.3,26.1414214 C44.3,26.5414214 44,26.8414214 43.5,26.6414214 C43.3,26.5414214 43.1,26.4414214 42.8,26.3414214 C42.8,26.3414214 42.8,26.4414214 42.8,26.5414214 C42.7,27.1414214 42.3,27.3414214 41.7,27.1414214 C41.7,27.0414214 41.3,26.8414214 41.2,26.7414214 C41.1,26.9414214 40.8,27.3414214 40.1,27.4414214 C40.4,26.6414214 40.4,25.7414214 40.2,25.0414214 L40.2,25.0414214 Z M54.2,18.7414214 C54.6,18.7414214 55.5,20.0414214 55.7,20.5414214 C56.1,21.2414214 56.3,22.0414214 56.5,23.1414214 C56.5,23.1414214 55.2,22.8414214 54.2,21.1414214 C53.9,20.7414214 53.1,19.2414214 53.3,18.9414214 C53.4,18.7414214 53.5,18.7414214 53.7,19.0414214 L55.2,21.4414214 C55.3,21.5414214 55.3,21.5414214 55.4,21.5414214 C55.4,21.4414214 55.4,21.4414214 55.3,21.3414214 L54.2,19.1414214 C54,18.8414214 54.1,18.7414214 54.2,18.7414214 L54.2,18.7414214 Z M57.2,26.0414214 C57.4,27.2414214 57.5,28.3414214 57.8,29.1414214 C57.8,29.1414214 56,28.7414214 55.4,26.1414214 C55.3,25.6414214 55.2,24.5414214 55.5,24.2414214 C55.6,24.1414214 55.8,24.2414214 55.8,24.6414214 L56.3,26.4414214 C56.3,26.5414214 56.4,26.5414214 56.4,26.5414214 C56.5,26.5414214 56.5,26.4414214 56.5,26.4414214 L56.1,24.1414214 C56.1,23.7414214 56.2,23.6414214 56.4,23.6414214 C56.8,23.8414214 57.1,25.5414214 57.2,26.0414214 L57.2,26.0414214 Z M54,32.7414214 C53.9,32.2414214 53.7,30.7414214 54,30.4414214 C54.1,30.2414214 54.2,30.3414214 54.3,30.7414214 L54.8,32.8414214 C54.8,32.9414214 54.8,33.0414214 54.9,33.0414214 C55,33.0414214 54.9,32.8414214 54.9,32.8414214 L54.6,30.6414214 C54.6,30.2414214 54.7,30.1414214 54.8,30.2414214 C55.2,30.4414214 55.6,31.8414214 55.7,32.4414214 C55.9,33.7414214 55.8,35.4414214 55.4,35.9414214 C54.9,35.6414214 54.2,34.1414214 54,32.7414214 L54,32.7414214 Z M52,31.0414214 C52.2,30.9414214 52.3,31.0414214 52.4,31.3414214 L52.9,33.4414214 C52.9,33.5414214 52.9,33.6414214 53,33.6414214 C53.1,33.6414214 53.1,33.4414214 53.1,33.4414214 L52.7,31.3414214 C52.6,30.9414214 52.7,30.8414214 52.9,30.8414214 C53.3,31.0414214 53.7,32.4414214 53.8,33.0414214 C54.1,34.3414214 54,35.9414214 53.6,36.4414214 C53.1,36.1414214 52.3,34.7414214 52.1,33.4414214 C52,32.9414214 51.7,31.3414214 52,31.0414214 L52,31.0414214 Z M51.5,28.1414214 C51.3,27.8414214 51.2,27.1414214 51.5,26.8414214 C51.6,26.7414214 51.7,26.7414214 51.9,27.0414214 L52.5,28.6414214 C52.6,28.6414214 52.6,28.7414214 52.7,28.7414214 C52.7,28.7414214 52.7,28.6414214 52.7,28.5414214 L52.1,26.7414214 C52,26.4414214 52.1,26.3414214 52.3,26.4414214 C52.7,26.4414214 53.1,27.1414214 53.2,27.5414214 C53.6,28.4414214 53.7,30.0414214 53.3,30.4414214 C52.8,30.4414214 51.8,29.1414214 51.5,28.1414214 L51.5,28.1414214 Z M49.8,29.1414214 C49.7,28.8414214 49.5,28.0414214 49.8,27.7414214 C49.9,27.6414214 50,27.6414214 50.1,27.9414214 L50.8,29.5414214 C50.8,29.5414214 50.8,29.6414214 50.9,29.6414214 C51,29.6414214 50.9,29.5414214 50.9,29.4414214 L50.4,27.7414214 C50.3,27.5414214 50.4,27.4414214 50.5,27.4414214 C50.9,27.4414214 51.3,28.1414214 51.4,28.5414214 C51.7,29.4414214 51.9,30.8414214 51.5,31.2414214 C51,31.1414214 50.1,30.0414214 49.8,29.1414214 L49.8,29.1414214 Z M48.1,28.6414214 C48.2,28.5414214 48.3,28.5414214 48.4,28.8414214 L48.9,30.3414214 C48.9,30.3414214 49,30.4414214 49,30.4414214 C49.1,30.4414214 49.1,30.3414214 49.1,30.2414214 L48.7,28.6414214 C48.6,28.3414214 48.7,28.3414214 48.8,28.3414214 C49.2,28.3414214 49.6,29.3414214 49.7,29.7414214 C50,30.6414214 50,32.0414214 49.6,32.4414214 C49.1,32.3414214 48.3,31.1414214 48.1,30.2414214 C48,29.9414214 47.8,28.9414214 48.1,28.6414214 L48.1,28.6414214 Z M54.6,27.5414214 L54.1,25.5414214 C54,25.2414214 54.1,25.1414214 54.3,25.1414214 C54.7,25.2414214 55.1,26.2414214 55.2,26.6414214 C55.5,27.7414214 55.6,29.3414214 55.1,29.7414214 C54.6,29.6414214 53.7,28.3414214 53.3,27.2414214 C53.2,26.8414214 53.1,25.9414214 53.4,25.6414214 C53.6,25.5414214 53.7,25.5414214 53.8,25.8414214 L54.4,27.6414214 C54.4,27.6414214 54.4,27.7414214 54.5,27.7414214 C54.6,27.7414214 54.6,27.6414214 54.6,27.5414214 L54.6,27.5414214 Z M53.7,22.6414214 L52.4,19.9414214 C52.2,19.5414214 52.3,19.4414214 52.5,19.4414214 C52.9,19.5414214 53.6,20.5414214 53.9,21.0414214 C54.5,22.2414214 54.8,23.7414214 54.6,24.5414214 C53.9,24.2414214 52.9,23.1414214 52.2,21.9414214 C52,21.5414214 51.5,20.3414214 51.7,19.9414214 C51.8,19.8414214 51.9,19.8414214 52.1,20.1414214 L53.6,22.6414214 C53.6,22.7414214 53.7,22.8414214 53.7,22.7414214 C53.8,22.7414214 53.8,22.6414214 53.7,22.6414214 L53.7,22.6414214 Z M52.1,23.8414214 L50.6,21.0414214 C50.4,20.7414214 50.5,20.6414214 50.6,20.6414214 C51,20.6414214 51.7,21.6414214 52,22.0414214 C52.6,23.1414214 53.1,24.8414214 53,25.5414214 C52.3,25.3414214 51.1,24.1414214 50.5,23.0414214 C50.2,22.5414214 49.7,21.4414214 49.8,21.0414214 C49.9,20.8414214 50,20.8414214 50.3,21.2414214 L51.9,23.8414214 C52,23.9414214 52,24.0414214 52.1,23.9414214 C52.2,23.9414214 52.1,23.8414214 52.1,23.8414214 L52.1,23.8414214 Z M50.4,24.9414214 L48.9,21.9414214 C48.7,21.5414214 48.8,21.4414214 48.9,21.5414214 C49.3,21.5414214 50,22.6414214 50.3,23.1414214 C50.8,24.2414214 51.4,26.2414214 51.2,26.6414214 C50.6,26.5414214 49.5,25.0414214 48.9,23.8414214 C48.7,23.4414214 48.1,22.2414214 48.3,21.8414214 C48.3,21.7414214 48.4,21.7414214 48.6,22.0414214 L50.2,24.9414214 C50.3,25.0414214 50.3,25.1414214 50.4,25.1414214 C50.5,25.0414214 50.4,24.9414214 50.4,24.9414214 L50.4,24.9414214 Z M48.7,25.9414214 L47.5,22.6414214 C47.4,22.2414214 47.4,22.1414214 47.6,22.2414214 C47.9,22.3414214 48.6,23.8414214 48.8,24.3414214 C49.2,25.5414214 49.5,27.2414214 49.3,27.7414214 C48.8,27.5414214 47.9,26.1414214 47.4,24.8414214 C47.3,24.4414214 46.8,22.8414214 46.9,22.5414214 C47,22.4414214 47.1,22.4414214 47.3,22.8414214 L48.5,25.9414214 C48.6,26.0414214 48.6,26.1414214 48.7,26.1414214 C48.7,26.1414214 48.7,26.0414214 48.7,25.9414214 L48.7,25.9414214 Z M46.1,27.1414214 C46,26.8414214 45.8,26.0414214 46,25.7414214 C46.1,25.5414214 46.3,25.5414214 46.4,25.9414214 L46.9,26.8414214 C47,26.9414214 47,27.0414214 47.1,27.0414214 C47.2,26.9414214 47.1,26.8414214 47.1,26.8414214 L46.7,25.7414214 C46.6,25.3414214 46.7,25.2414214 46.8,25.3414214 C47.3,25.3414214 47.7,26.0414214 47.8,26.3414214 C48.1,27.0414214 48,27.9414214 47.7,28.4414214 C47.1,28.3414214 46.4,27.8414214 46.1,27.1414214 L46.1,27.1414214 Z M45.4,27.7414214 L45.2,27.0414214 C45.1,26.7414214 45.2,26.6414214 45.3,26.6414214 C45.7,26.7414214 46,27.3414214 46.1,27.5414214 C46.3,28.1414214 46.1,28.8414214 45.8,29.2414214 C45.4,29.1414214 44.8,28.7414214 44.6,28.1414214 C44.6,27.9414214 44.4,27.2414214 44.7,26.9414214 C44.7,26.8414214 44.8,26.8414214 45,27.1414214 L45.3,27.7414214 C45.3,27.8414214 45.3,27.8414214 45.4,27.8414214 C45.4,27.8414214 45.4,27.7414214 45.4,27.7414214 L45.4,27.7414214 Z M57.6,32.1414214 C57.5,33.4414214 57.4,34.5414214 57.8,35.5414214 C57.8,35.5414214 56,34.5414214 55.8,30.7414214 C55.7,30.1414214 55.8,28.7414214 56.2,28.7414214 C56.4,28.7414214 56.5,28.9414214 56.5,29.3414214 L56.7,32.1414214 C56.7,32.2414214 56.8,32.3414214 56.8,32.3414214 C56.9,32.3414214 56.9,32.2414214 57,32.1414214 L56.9,29.9414214 C56.9,29.5414214 57,29.4414214 57.2,29.5414214 C57.5,29.7414214 57.6,31.5414214 57.6,32.1414214 L57.6,32.1414214 Z M41.9,40.8414214 C42.2,39.7414214 41.9,38.9414214 41.9,38.9414214 C42.5,39.9414214 42.7,41.0414214 42.6,41.8414214 C42.5,42.2414214 42.7,42.5414214 42.7,42.5414214 C42.7,42.5414214 42.4,42.2414214 42.1,42.0414214 C42,41.9414214 41.8,41.6414214 41.8,41.5414214 C41.8,41.3414214 41.8,41.0414214 41.9,40.8414214 L41.9,40.8414214 Z M42.3,38.1414214 C42.4,38.4414214 42.6,38.5414214 42.6,38.5414214 C42.2,38.5414214 41.9,38.4414214 42,38.2414214 C42,38.1414214 42.1,37.9414214 42.3,38.1414214 L42.3,38.1414214 Z M43.6,42.7414214 C43.7,43.2414214 43.8,43.4414214 43.8,43.4414214 L43.3,42.9414214 C43.3,42.9414214 43,42.7414214 42.9,42.5414214 C42.8,42.3414214 42.8,42.1414214 42.8,41.9414214 C42.9,41.0414214 42.7,40.7414214 42.7,40.7414214 C43.3,41.3414214 43.6,42.1414214 43.6,42.7414214 L43.6,42.7414214 Z M44.8,44.4414214 C44.6,44.2414214 44.5,44.0414214 44.3,43.8414214 C44.1,43.6414214 44,43.4414214 43.9,43.3414214 C43.9,43.1414214 43.8,42.9414214 43.8,42.7414214 C43.7,41.9414214 43.5,41.5414214 43.5,41.5414214 C44.7,42.6414214 44.8,44.4414214 44.8,44.4414214 L44.8,44.4414214 Z M46.6,44.2414214 C46.6,44.2414214 46.1,44.2414214 45.7,44.4414214 C45.4,44.5414214 45,44.5414214 44.9,43.9414214 C44.9,43.4414214 44.7,42.9414214 44.4,42.4414214 C44.4,42.4414214 45.3,43.8414214 46.6,44.2414214 L46.6,44.2414214 Z M46.9,44.5414214 C46.9,44.5414214 47,44.5414214 47,44.5414214 C47.2,44.5414214 47.3,44.7414214 47.3,44.9414214 C47.3,45.2414214 47.1,45.4414214 46.9,45.4414214 C46.7,45.4414214 46.6,45.4414214 46.5,45.3414214 C46.4,45.2414214 46,44.8414214 45.3,44.8414214 C46,44.4414214 46.7,44.4414214 46.9,44.5414214 L46.9,44.5414214 Z M47.2,43.4414214 C47.2,43.3414214 47.2,43.2414214 47.3,43.1414214 C47.4,43.2414214 47.4,43.2414214 47.5,43.3414214 L47.5,43.4414214 C47.3,43.6414214 47.2,43.9414214 47.1,44.1414214 C47.1,43.9414214 47.2,43.5414214 47.2,43.4414214 L47.2,43.4414214 Z M47.5,42.5414214 L47.6,42.5414214 C47.6,42.5414214 47.7,42.6414214 47.7,42.6414214 C47.8,42.7414214 47.8,42.7414214 47.8,42.8414214 C47.9,42.8414214 47.9,42.8414214 47.9,42.8414214 C47.8,42.9414214 47.7,43.0414214 47.6,43.1414214 C47.6,43.1414214 47.5,43.0414214 47.5,43.0414214 C47.4,43.0414214 47.4,42.9414214 47.3,42.9414214 C47.4,42.8414214 47.4,42.6414214 47.5,42.5414214 L47.5,42.5414214 Z M47.9,42.0414214 C48,41.9414214 48,42.0414214 48,42.0414214 C48.1,42.0414214 48.2,42.1414214 48.2,42.1414214 C48.3,42.2414214 48.3,42.3414214 48.3,42.4414214 L48.3,42.5414214 C48.2,42.5414214 48.1,42.6414214 48,42.7414214 C48,42.6414214 47.9,42.5414214 47.9,42.5414214 C47.8,42.4414214 47.7,42.3414214 47.6,42.3414214 C47.7,42.2414214 47.8,42.1414214 47.9,42.0414214 L47.9,42.0414214 Z M48.3,41.7414214 C48.4,41.6414214 48.5,41.6414214 48.7,41.6414214 C48.7,41.6414214 48.8,41.6414214 48.9,41.8414214 C48.9,41.9414214 49,41.9414214 48.9,42.0414214 C48.9,42.0414214 48.9,42.1414214 48.9,42.1414214 C48.8,42.2414214 48.7,42.2414214 48.6,42.3414214 C48.5,42.2414214 48.5,42.1414214 48.4,42.0414214 C48.4,41.9414214 48.3,41.8414214 48.2,41.8414214 C48.2,41.7414214 48.2,41.7414214 48.3,41.7414214 L48.3,41.7414214 Z M49.3,42.6414214 C49.4,42.8414214 49.4,42.9414214 49.5,43.0414214 C49.5,43.1414214 49.5,43.1414214 49.4,43.2414214 C49.3,43.2414214 49.2,43.3414214 49,43.3414214 C49,43.2414214 49,43.0414214 48.9,42.9414214 C48.8,42.7414214 48.7,42.6414214 48.5,42.6414214 L48.5,42.5414214 C48.6,42.5414214 48.7,42.5414214 48.7,42.4414214 C48.8,42.4414214 48.8,42.4414214 48.8,42.4414214 C48.8,42.4414214 48.9,42.4414214 49,42.4414214 C49.1,42.4414214 49.2,42.5414214 49.3,42.6414214 L49.3,42.6414214 Z M49.8,41.9414214 C49.6,41.9414214 49.4,41.9414214 49.2,42.0414214 C49.2,41.9414214 49.2,41.8414214 49.1,41.7414214 C49.1,41.6414214 49.1,41.6414214 49.1,41.6414214 C49.4,41.6414214 49.7,41.7414214 49.8,41.9414214 L49.8,41.9414214 Z M51.5,42.7414214 C51.1,42.6414214 50.7,42.7414214 50.6,42.9414214 C50.5,42.7414214 50.5,42.3414214 49.9,42.1414214 C50.9,41.9414214 51.4,42.3414214 51.5,42.7414214 L51.5,42.7414214 Z M51.6,44.3414214 C51.4,44.1414214 51.1,44.1414214 50.8,44.1414214 C50.9,43.9414214 50.8,43.5414214 50.5,43.4414214 C51,43.4414214 51.6,43.8414214 51.6,44.3414214 L51.6,44.3414214 Z M50.6,44.3414214 C50.4,44.6414214 50.2,44.9414214 49.9,45.0414214 C50,44.8414214 50.1,44.6414214 50.1,44.3414214 C50.1,43.9414214 50,43.6414214 49.7,43.4414214 C49.8,43.4414214 49.9,43.4414214 49.9,43.4414214 C50.5,43.3414214 50.7,44.0414214 50.6,44.3414214 L50.6,44.3414214 Z M49.5,42.5414214 C49.4,42.4414214 49.3,42.3414214 49.2,42.2414214 C49.3,42.2414214 49.4,42.2414214 49.5,42.2414214 C49.8,42.2414214 50.3,42.4414214 50.4,43.0414214 C50.2,43.0414214 49.9,43.1414214 49.7,43.1414214 C49.7,43.1414214 49.7,43.0414214 49.7,43.0414214 C49.7,42.8414214 49.6,42.6414214 49.5,42.5414214 L49.5,42.5414214 Z M49.5,45.0414214 C49.4,45.0414214 49.3,45.1414214 49.2,45.1414214 C49.2,44.9414214 49.3,44.7414214 49.3,44.5414214 C49.3,44.1414214 49.2,43.8414214 49,43.7414214 C49.1,43.6414214 49.3,43.6414214 49.4,43.5414214 C49.6,43.5414214 49.8,43.9414214 49.8,44.3414214 C49.8,44.6414214 49.7,44.9414214 49.5,45.0414214 L49.5,45.0414214 Z M48.8,45.1414214 C48.6,45.1414214 48.5,45.2414214 48.3,45.2414214 C48.4,45.0414214 48.4,44.9414214 48.4,44.7414214 C48.4,44.4414214 48.3,44.2414214 48.2,44.0414214 C48.4,44.0414214 48.5,43.9414214 48.7,43.8414214 C48.9,43.8414214 49,44.1414214 49,44.5414214 C49,44.8414214 48.9,45.0414214 48.8,45.1414214 L48.8,45.1414214 Z M47.9,43.1414214 C47.9,43.1414214 48,43.0414214 48,43.0414214 C48.1,42.9414214 48.2,42.8414214 48.2,42.8414214 C48.3,42.7414214 48.4,42.7414214 48.4,42.8414214 C48.5,42.8414214 48.6,42.9414214 48.7,43.0414214 C48.7,43.1414214 48.8,43.2414214 48.8,43.3414214 C48.8,43.4414214 48.8,43.4414214 48.7,43.4414214 C48.6,43.5414214 48.5,43.6414214 48.3,43.6414214 C48.3,43.6414214 48.3,43.5414214 48.2,43.4414214 C48.1,43.2414214 48,43.1414214 47.9,43.1414214 L47.9,43.1414214 Z M48,43.5414214 C48.1,43.6414214 48.1,43.7414214 48.1,43.8414214 C47.8,43.9414214 47.6,44.0414214 47.3,44.1414214 C47.4,43.9414214 47.5,43.6414214 47.7,43.3414214 C47.8,43.3414214 47.9,43.3414214 48,43.5414214 L48,43.5414214 Z M48,45.2414214 C47.8,45.2414214 47.7,45.2414214 47.5,45.3414214 C47.6,45.2414214 47.6,45.0414214 47.6,44.9414214 C47.6,44.6414214 47.5,44.4414214 47.3,44.4414214 C47.4,44.3414214 47.5,44.3414214 47.6,44.3414214 C47.7,44.2414214 47.8,44.2414214 47.9,44.1414214 C48.1,44.1414214 48.2,44.4414214 48.2,44.7414214 C48.2,44.9414214 48.1,45.2414214 48,45.2414214 L48,45.2414214 Z M46.1,45.7414214 C46.1,45.7414214 46.1,45.2414214 45.7,45.0414214 C46,45.1414214 46.2,45.2414214 46.5,45.5414214 C46.5,45.5414214 46.2,45.5414214 46.1,45.7414214 L46.1,45.7414214 Z M45.3,46.2414214 C45,46.2414214 44.8,45.9414214 44.8,45.6414214 C44.8,45.3414214 45,45.1414214 45.3,45.1414214 C45.6,45.1414214 45.9,45.3414214 45.9,45.6414214 C45.9,45.9414214 45.6,46.2414214 45.3,46.2414214 L45.3,46.2414214 Z M45.6,46.5414214 C45.6,46.5414214 45.5,46.9414214 45.5,46.9414214 C45.4,47.3414214 45,47.6414214 44.6,47.6414214 C44.4,47.6414214 44.1,47.4414214 44,47.3414214 C43.7,47.8414214 44,48.1414214 44,48.1414214 C44,48.1414214 43.7,48.1414214 43.5,47.7414214 C43.4,47.4414214 43.4,46.8414214 43.8,46.3414214 C44,46.1414214 44.2,46.0414214 44.4,45.8414214 C44.5,45.8414214 44.5,45.7414214 44.6,45.7414214 C44.6,45.9414214 44.7,46.2414214 45,46.3414214 C45.1,46.3414214 45.2,46.4414214 45.3,46.4414214 C45.4,46.4414214 45.5,46.4414214 45.6,46.3414214 C45.6,46.4414214 45.6,46.4414214 45.6,46.5414214 L45.6,46.5414214 Z M23.1,41.5414214 C23.1,41.6414214 23,41.9414214 22.9,42.0414214 C22.6,42.2414214 22.3,42.5414214 22.3,42.5414214 C22.3,42.5414214 22.4,42.2414214 22.4,41.8414214 C22.3,41.0414214 22.4,39.9414214 23.1,38.9414214 C23.1,38.9414214 22.8,39.7414214 23.1,40.8414214 C23.1,41.0414214 23.2,41.3414214 23.1,41.5414214 L23.1,41.5414214 Z M22.2,41.9414214 C22.2,42.1414214 22.1,42.3414214 22.1,42.5414214 C22,42.7414214 21.7,42.9414214 21.7,42.9414214 L21.2,43.4414214 C21.2,43.4414214 21.3,43.2414214 21.3,42.7414214 C21.4,42.1414214 21.7,41.3414214 22.2,40.7414214 C22.2,40.7414214 22.1,41.0414214 22.2,41.9414214 L22.2,41.9414214 Z M21,43.3414214 C21,43.4414214 20.9,43.6414214 20.7,43.8414214 C20.5,44.0414214 20.3,44.2414214 20.2,44.4414214 C20.2,44.4414214 20.3,42.6414214 21.5,41.5414214 C21.5,41.5414214 21.2,41.9414214 21.2,42.7414214 C21.1,42.9414214 21.1,43.1414214 21,43.3414214 L21,43.3414214 Z M20.4,45.7414214 C20.5,45.7414214 20.5,45.8414214 20.6,45.8414214 C20.8,46.0414214 21,46.1414214 21.2,46.3414214 C21.6,46.8414214 21.6,47.4414214 21.4,47.7414214 C21.3,48.1414214 21,48.1414214 21,48.1414214 C21,48.1414214 21.3,47.8414214 21,47.3414214 C20.8,47.4414214 20.6,47.6414214 20.3,47.6414214 C19.9,47.6414214 19.6,47.3414214 19.5,46.9414214 C19.5,46.9414214 19.4,46.5414214 19.4,46.5414214 C19.4,46.4414214 19.3,46.4414214 19.3,46.3414214 C19.4,46.4414214 19.5,46.4414214 19.6,46.4414214 C19.8,46.4414214 19.9,46.3414214 20,46.3414214 C20.2,46.2414214 20.4,45.9414214 20.4,45.7414214 L20.4,45.7414214 Z M19.1,45.6414214 C19.1,45.3414214 19.3,45.1414214 19.6,45.1414214 C19.9,45.1414214 20.2,45.3414214 20.2,45.6414214 C20.2,45.9414214 19.9,46.2414214 19.6,46.2414214 C19.3,46.2414214 19.1,45.9414214 19.1,45.6414214 L19.1,45.6414214 Z M18.9,45.7414214 C18.7,45.5414214 18.5,45.5414214 18.5,45.5414214 C18.8,45.2414214 18.9,45.1414214 19.3,45.0414214 C18.8,45.2414214 18.9,45.7414214 18.9,45.7414214 L18.9,45.7414214 Z M18.1,45.4414214 C17.8,45.4414214 17.6,45.2414214 17.6,44.9414214 C17.6,44.7414214 17.8,44.5414214 18,44.5414214 L18.1,44.5414214 C18.3,44.4414214 19,44.4414214 19.7,44.8414214 C18.9,44.8414214 18.5,45.2414214 18.4,45.3414214 C18.3,45.4414214 18.2,45.4414214 18.1,45.4414214 L18.1,45.4414214 Z M17.5,45.3414214 C17.3,45.2414214 17.1,45.2414214 17,45.2414214 C16.9,45.2414214 16.8,44.9414214 16.8,44.7414214 C16.8,44.4414214 16.9,44.1414214 17,44.1414214 C17.2,44.2414214 17.3,44.2414214 17.4,44.3414214 C17.4,44.3414214 17.6,44.3414214 17.6,44.4414214 C17.4,44.4414214 17.4,44.6414214 17.4,44.9414214 C17.4,45.0414214 17.4,45.2414214 17.5,45.3414214 L17.5,45.3414214 Z M16.6,45.2414214 C16.5,45.2414214 16.3,45.1414214 16.2,45.1414214 C16,45.0414214 15.9,44.8414214 15.9,44.5414214 C15.9,44.1414214 16.1,43.8414214 16.2,43.8414214 C16.4,43.9414214 16.6,44.0414214 16.8,44.0414214 C16.6,44.2414214 16.5,44.4414214 16.5,44.7414214 C16.5,44.9414214 16.6,45.0414214 16.6,45.2414214 L16.6,45.2414214 Z M15.5,45.0414214 C15.3,44.9414214 15.1,44.6414214 15.1,44.3414214 C15.1,43.9414214 15.3,43.5414214 15.6,43.5414214 C15.7,43.6414214 15.8,43.6414214 16,43.7414214 C15.8,43.8414214 15.7,44.1414214 15.7,44.5414214 C15.7,44.7414214 15.7,44.9414214 15.8,45.1414214 C15.7,45.1414214 15.6,45.0414214 15.5,45.0414214 L15.5,45.0414214 Z M14.4,44.3414214 C14.3,44.0414214 14.5,43.3414214 15,43.4414214 C15.1,43.4414214 15.1,43.4414214 15.2,43.4414214 C15,43.6414214 14.9,43.9414214 14.9,44.3414214 C14.9,44.6414214 14.9,44.8414214 15,45.0414214 C14.7,44.9414214 14.5,44.6414214 14.4,44.3414214 L14.4,44.3414214 Z M14.1,44.1414214 C13.8,44.1414214 13.5,44.1414214 13.4,44.3414214 C13.4,43.8414214 13.9,43.4414214 14.5,43.4414214 C14.2,43.5414214 14.1,43.9414214 14.1,44.1414214 L14.1,44.1414214 Z M13.5,42.7414214 C13.6,42.3414214 14,41.9414214 15,42.1414214 C14.5,42.3414214 14.4,42.7414214 14.4,42.9414214 C14.3,42.7414214 13.8,42.6414214 13.5,42.7414214 L13.5,42.7414214 Z M15.9,41.6414214 L15.8,41.7414214 C15.8,41.8414214 15.8,41.9414214 15.8,42.0414214 C15.6,41.9414214 15.4,41.9414214 15.2,41.9414214 C15.3,41.7414214 15.6,41.6414214 15.9,41.6414214 L15.9,41.6414214 Z M15.5,42.5414214 C15.4,42.6414214 15.3,42.8414214 15.3,43.0414214 C15.3,43.0414214 15.3,43.1414214 15.3,43.1414214 C15,43.1414214 14.8,43.0414214 14.6,43.0414214 C14.7,42.4414214 15.1,42.2414214 15.5,42.2414214 C15.6,42.2414214 15.7,42.2414214 15.8,42.2414214 C15.7,42.3414214 15.6,42.4414214 15.5,42.5414214 L15.5,42.5414214 Z M16.2,42.4414214 C16.3,42.5414214 16.4,42.5414214 16.4,42.5414214 C16.4,42.6414214 16.4,42.6414214 16.4,42.6414214 C16.3,42.6414214 16.2,42.7414214 16.1,42.9414214 C16,43.0414214 15.9,43.2414214 15.9,43.3414214 C15.8,43.3414214 15.7,43.2414214 15.5,43.2414214 C15.5,43.1414214 15.5,43.1414214 15.5,43.0414214 C15.5,42.9414214 15.6,42.8414214 15.7,42.6414214 C15.8,42.5414214 15.9,42.4414214 16,42.4414214 C16,42.4414214 16.1,42.4414214 16.2,42.4414214 L16.2,42.4414214 Z M16.1,41.8414214 C16.1,41.6414214 16.2,41.6414214 16.3,41.6414214 C16.4,41.6414214 16.6,41.6414214 16.7,41.7414214 C16.7,41.7414214 16.8,41.7414214 16.8,41.8414214 C16.7,41.8414214 16.6,41.9414214 16.5,42.0414214 C16.5,42.1414214 16.4,42.2414214 16.4,42.3414214 C16.3,42.2414214 16.2,42.2414214 16,42.1414214 C16,42.1414214 16,42.0414214 16,42.0414214 C16,41.9414214 16,41.9414214 16.1,41.8414214 L16.1,41.8414214 Z M16.9,42.0414214 C17,42.0414214 17,41.9414214 17,42.0414214 C17.1,42.1414214 17.2,42.2414214 17.3,42.3414214 C17.2,42.3414214 17.2,42.4414214 17.1,42.5414214 C17,42.5414214 17,42.6414214 16.9,42.7414214 C16.9,42.6414214 16.8,42.5414214 16.7,42.5414214 C16.7,42.4414214 16.7,42.4414214 16.7,42.4414214 C16.7,42.3414214 16.7,42.2414214 16.7,42.1414214 C16.8,42.1414214 16.9,42.0414214 16.9,42.0414214 L16.9,42.0414214 Z M17.4,42.5414214 C17.5,42.6414214 17.6,42.8414214 17.6,42.9414214 C17.6,42.9414214 17.5,43.0414214 17.5,43.0414214 C17.4,43.0414214 17.4,43.1414214 17.4,43.1414214 C17.3,43.0414214 17.2,42.9414214 17.1,42.8414214 C17.1,42.7414214 17.2,42.7414214 17.2,42.6414214 C17.3,42.6414214 17.3,42.5414214 17.4,42.5414214 L17.4,42.5414214 Z M16.7,43.4414214 C16.7,43.5414214 16.7,43.6414214 16.6,43.6414214 C16.5,43.6414214 16.4,43.5414214 16.2,43.4414214 L16.2,43.3414214 C16.2,43.2414214 16.2,43.1414214 16.3,43.0414214 C16.4,42.9414214 16.5,42.8414214 16.5,42.8414214 C16.6,42.7414214 16.7,42.7414214 16.7,42.8414214 C16.8,42.8414214 16.9,42.9414214 16.9,43.0414214 C17,43.0414214 17,43.0414214 17,43.0414214 C17,43.0414214 17,43.1414214 17.1,43.1414214 C16.9,43.1414214 16.8,43.2414214 16.7,43.4414214 L16.7,43.4414214 Z M17,43.5414214 C17,43.3414214 17.2,43.3414214 17.2,43.3414214 C17.4,43.6414214 17.6,43.9414214 17.6,44.1414214 C17.4,44.0414214 17.2,43.9414214 16.9,43.8414214 C16.9,43.7414214 16.9,43.6414214 17,43.5414214 L17,43.5414214 Z M17.8,43.4414214 C17.8,43.5414214 17.9,43.9414214 17.9,44.1414214 C17.8,43.9414214 17.6,43.6414214 17.5,43.4414214 C17.5,43.3414214 17.5,43.3414214 17.5,43.3414214 C17.5,43.2414214 17.6,43.2414214 17.6,43.1414214 C17.6,43.1414214 17.7,43.1414214 17.7,43.1414214 C17.7,43.2414214 17.8,43.3414214 17.8,43.4414214 L17.8,43.4414214 Z M20.6,42.4414214 C20.3,42.9414214 20.1,43.4414214 20,43.9414214 C20,44.5414214 19.5,44.5414214 19.3,44.4414214 C18.8,44.2414214 18.3,44.2414214 18.3,44.2414214 C19.7,43.8414214 20.6,42.4414214 20.6,42.4414214 L20.6,42.4414214 Z M22.4,38.5414214 C22.4,38.5414214 22.6,38.4414214 22.7,38.1414214 C22.8,37.9414214 23,38.1414214 23,38.2414214 C23,38.4414214 22.8,38.5414214 22.4,38.5414214 L22.4,38.5414214 Z M58,42.1414214 C58,41.1414214 58,39.7414214 58,38.5414214 C58,37.5414214 57.7,36.3414214 57.4,35.8414214 C57.6,36.0414214 57.9,36.1414214 58.2,36.1414214 C58,35.8414214 57.7,34.7414214 57.8,32.9414214 C58,30.5414214 57.5,29.6414214 57.5,29.4414214 C57.7,29.5414214 57.8,29.5414214 58.1,29.6414214 C58,29.2414214 57.9,28.8414214 57.8,28.4414214 C57.6,27.2414214 57.2,24.4414214 56.5,23.5414214 C56.5,23.5414214 56.7,23.5414214 56.8,23.5414214 C56.7,23.0414214 56.3,21.0414214 55.5,19.8414214 C55.2,19.4414214 54.7,18.7414214 54.1,18.4414214 C54.2,18.4414214 54.2,18.3414214 54.2,18.3414214 C54.3,18.0414214 54.2,17.8414214 53.9,17.7414214 C53.7,17.6414214 53.5,17.6414214 53.4,17.5414214 C52.9,17.4414214 52.4,17.2414214 51.9,17.0414214 C51,16.6414214 50.1,16.2414214 49.2,16.1414214 C47.9,15.9414214 46.6,16.0414214 45.5,16.8414214 C44,17.9414214 43.3,19.8414214 44.2,21.9414214 C44.2,22.0414214 44.2,22.0414214 44.3,22.1414214 C44.6,22.6414214 44.5,23.0414214 44.1,23.4414214 C43.4,24.1414214 42.5,24.6414214 41.6,24.7414214 C40.9,24.8414214 40.4,24.5414214 40,24.1414214 C39.1,23.1414214 38.4,22.0414214 38.2,20.6414214 C38.1,19.8414214 38,19.3414214 38.1,18.4414214 C38.1,17.9414214 38.2,17.2414214 38.4,17.1414214 C38.4,17.1414214 38.6,17.5414214 38.8,17.6414214 C38.5,16.5414214 38.8,16.0414214 38.8,16.0414214 C38.8,16.0414214 39,16.3414214 39.2,16.5414214 C39.1,15.7414214 39.6,14.9414214 40.7,14.7414214 C41,14.6414214 41.5,14.5414214 41.8,14.5414214 C43.7,13.9414214 44,14.4414214 44,14.4414214 C43.9,14.2414214 43.6,13.7414214 43.4,13.6414214 C44,13.8414214 45,14.5414214 46.5,14.2414214 C47.7,14.1414214 48,12.7414214 47.1,12.2414214 C47.1,12.2414214 47.6,12.9414214 46.9,13.4414214 C46.5,13.7414214 45.7,13.6414214 45.4,13.6414214 C44.9,13.4414214 44,12.9414214 44,12.9414214 C44.8,12.5414214 45.5,12.8414214 46.2,13.2414214 C46.3,12.6414214 45.9,11.8414214 45.4,11.5414214 C44.8,11.2414214 44.3,11.1414214 43.3,10.9414214 C43.3,10.9414214 42.6,10.3414214 41.4,10.0414214 C41,9.94142136 40.3,10.0414214 39.7,10.1414214 C38.7,10.3414214 38.3,10.5414214 37.4,10.7414214 C36.6,10.9414214 34.9,11.3414214 33.6,10.4414214 C33.5,10.4414214 34,11.5414214 35.3,11.9414214 C35,12.0414214 34.3,11.9414214 33.8,11.6414214 C34,11.9414214 34.5,12.4414214 35.1,12.6414214 C34.9,12.8414214 34.3,12.9414214 33.9,12.7414214 C34.3,13.2414214 34.6,13.3414214 35,13.4414214 C33.8,14.9414214 32.9,16.7414214 32.5,20.1414214 C32,16.7414214 31.2,14.9414214 29.9,13.4414214 C30.3,13.3414214 30.6,13.2414214 31,12.7414214 C30.7,12.9414214 30,12.8414214 29.8,12.6414214 C30.5,12.4414214 30.9,11.9414214 31.2,11.6414214 C30.7,11.9414214 30,12.0414214 29.6,11.9414214 C30.9,11.5414214 31.4,10.4414214 31.4,10.4414214 C30.1,11.3414214 28.3,10.9414214 27.6,10.7414214 C26.7,10.5414214 26.2,10.3414214 25.3,10.1414214 C24.6,10.0414214 23.9,9.94142136 23.5,10.0414214 C22.4,10.3414214 21.7,10.9414214 21.7,10.9414214 C20.7,11.1414214 20.2,11.2414214 19.6,11.5414214 C19,11.8414214 18.6,12.6414214 18.8,13.2414214 C19.5,12.8414214 20.2,12.5414214 20.9,12.9414214 C20.9,12.9414214 20.1,13.4414214 19.5,13.6414214 C19.2,13.6414214 18.4,13.7414214 18.1,13.4414214 C17.4,12.9414214 17.9,12.2414214 17.9,12.2414214 C17,12.7414214 17.2,14.1414214 18.4,14.2414214 C19.9,14.5414214 20.9,13.8414214 21.6,13.6414214 C21.3,13.7414214 21,14.2414214 20.9,14.4414214 C20.9,14.4414214 21.2,13.9414214 23.2,14.5414214 C23.5,14.5414214 24,14.6414214 24.3,14.7414214 C25.3,14.9414214 25.9,15.7414214 25.8,16.5414214 C26,16.3414214 26.1,16.0414214 26.1,16.0414214 C26.1,16.0414214 26.5,16.5414214 26.1,17.6414214 C26.4,17.5414214 26.6,17.1414214 26.6,17.1414214 C26.7,17.2414214 26.9,17.9414214 26.9,18.4414214 C27,19.3414214 26.9,19.8414214 26.8,20.6414214 C26.6,22.0414214 25.9,23.1414214 25,24.1414214 C24.5,24.5414214 24,24.8414214 23.4,24.7414214 C22.4,24.6414214 21.6,24.1414214 20.9,23.4414214 C20.5,23.0414214 20.4,22.6414214 20.7,22.1414214 C20.7,22.0414214 20.7,22.0414214 20.8,21.9414214 C21.6,19.8414214 20.9,17.9414214 19.4,16.8414214 C18.4,16.0414214 17.1,15.9414214 15.8,16.1414214 C14.8,16.2414214 14,16.6414214 13.1,17.0414214 C12.6,17.2414214 12.1,17.4414214 11.6,17.5414214 C11.4,17.6414214 11.2,17.6414214 11,17.7414214 C10.7,17.8414214 10.6,18.0414214 10.7,18.3414214 C10.8,18.3414214 10.8,18.4414214 10.8,18.4414214 C10.3,18.7414214 9.7,19.4414214 9.5,19.8414214 C8.7,21.0414214 8.2,23.0414214 8.2,23.5414214 C8.3,23.5414214 8.4,23.5414214 8.4,23.5414214 C7.7,24.4414214 7.4,27.2414214 7.1,28.4414214 C7,28.8414214 7,29.2414214 6.9,29.6414214 C7.1,29.5414214 7.3,29.5414214 7.5,29.4414214 C7.4,29.6414214 7,30.5414214 7.1,32.9414214 C7.3,34.7414214 6.9,35.8414214 6.8,36.1414214 C7,36.1414214 7.3,36.0414214 7.5,35.8414214 C7.2,36.3414214 6.9,37.5414214 6.9,38.5414214 C6.9,39.7414214 7,41.1414214 6.9,42.1414214 C6.9,43.7414214 6.3,44.0414214 6,44.2414214 C6.4,44.3414214 7,44.3414214 7.4,44.0414214 C7.6,43.8414214 7.8,43.7414214 8.2,43.7414214 C8.8,43.7414214 9.4,43.4414214 9.8,43.0414214 C10,42.9414214 10.3,42.7414214 10.5,42.7414214 C11.2,42.7414214 11.5,42.4414214 12,41.9414214 C12,41.8414214 12.2,41.8414214 12.3,41.8414214 C14.9,41.2414214 14.9,38.4414214 14.9,37.6414214 C15.3,37.5414214 15.8,37.1414214 16,36.8414214 C16,36.7414214 16.1,36.6414214 16.2,36.7414214 C17.3,37.0414214 18,35.2414214 18.2,34.6414214 C18.4,34.1414214 18.5,33.4414214 18.6,32.9414214 C18.6,33.3414214 19.5,34.2414214 20.3,32.9414214 C20.3,34.8414214 21.8,34.4414214 22.2,33.2414214 C22.6,35.5414214 24.2,34.4414214 24.2,32.6414214 C24.2,35.3414214 25.8,34.9414214 25.8,34.1414214 C25.8,34.5414214 26.3,35.0414214 26.3,35.0414214 C22.5,35.7414214 23.6,37.6414214 21.9,38.6414214 C22.5,38.9414214 23,38.5414214 22.9,38.7414214 C22.5,39.3414214 22.3,39.8414214 22.2,40.5414214 C22.2,40.5414214 20.2,42.4414214 19.4,43.1414214 C19.1,43.4414214 18.8,43.6414214 18.5,43.9414214 C18.4,44.0414214 18.3,44.0414214 18.1,44.1414214 C18.1,44.0414214 18.1,43.9414214 18.1,43.9414214 C17.9,43.2414214 17.8,42.6414214 17.4,42.1414214 C16.8,41.3414214 16,41.1414214 15.2,41.6414214 C14.9,41.8414214 14.7,41.9414214 14.3,41.9414214 C13.7,41.9414214 13.2,42.5414214 13.2,43.1414214 C13.6,42.8414214 14.2,42.9414214 14.4,43.2414214 C13.4,43.3414214 12.9,44.2414214 13.2,44.8414214 C13.2,44.7414214 13.4,44.5414214 13.5,44.5414214 C13.9,44.3414214 14.2,44.4414214 14.3,44.6414214 C14.5,45.1414214 15,45.3414214 15.4,45.3414214 C16.3,45.4414214 17.1,45.5414214 18,45.6414214 C19.2,45.7414214 19.1,46.6414214 19.4,47.1414214 C19.5,47.5414214 19.9,47.7414214 20.3,47.7414214 C20.5,47.7414214 20.7,47.7414214 20.9,47.6414214 C21,47.9414214 20.9,48.3414214 20.5,48.3414214 C20.8,48.4414214 21.4,48.3414214 21.6,47.9414214 C21.9,47.2414214 21.7,46.6414214 21.2,46.1414214 C21.1,46.0414214 21.1,46.0414214 21,46.0414214 C21,45.9414214 20.9,45.9414214 20.9,45.9414214 C20.8,45.8414214 20.6,45.6414214 20.4,45.5414214 C20.2,45.2414214 20.1,44.9414214 20.3,44.6414214 C20.5,44.3414214 20.7,44.1414214 20.9,43.9414214 C21.7,43.3414214 22.4,42.7414214 23.1,42.1414214 C23.4,41.9414214 23.6,41.8414214 23.9,41.6414214 C24.1,41.5414214 24.4,41.5414214 24.6,41.6414214 C25.2,41.8414214 25.5,41.5414214 25.7,41.4414214 C25.7,41.3414214 26.5,40.5414214 28.9,40.2414214 C28.6,40.4414214 28.4,40.8414214 28.3,41.1414214 C28.2,41.4414214 28.1,41.7414214 28,42.0414214 C26.6,45.1414214 25.3,48.2414214 23.9,51.4414214 C23.5,52.4414214 23.9,53.4414214 25,53.9414214 C25.8,54.2414214 26.7,54.0414214 27.2,53.3414214 C27,53.8414214 27,54.3414214 27.2,54.7414214 C27.4,55.1414214 27.7,55.4414214 28.2,55.6414214 C28.6,55.8414214 29.1,55.9414214 29.6,55.8414214 C30.1,55.7414214 30.4,55.4414214 30.6,54.9414214 C30.7,55.9414214 31.3,56.6414214 32.2,56.7414214 C32.3,56.7414214 32.3,56.7414214 32.4,56.7414214 C32.4,56.7414214 32.5,56.7414214 32.5,56.7414214 C32.6,56.7414214 32.7,56.7414214 32.8,56.7414214 C33.6,56.6414214 34.3,55.9414214 34.3,54.9414214 C34.6,55.4414214 34.9,55.7414214 35.4,55.8414214 C35.8,55.9414214 36.4,55.8414214 36.8,55.6414214 C37.2,55.4414214 37.6,55.1414214 37.8,54.7414214 C38,54.3414214 37.9,53.8414214 37.8,53.3414214 C38.3,54.0414214 39.2,54.2414214 40,53.9414214 C41.1,53.4414214 41.5,52.4414214 41,51.4414214 C39.7,48.2414214 38.4,45.1414214 37,42.0414214 C36.9,41.7414214 36.8,41.4414214 36.7,41.1414214 C36.5,40.8414214 36.4,40.4414214 36,40.2414214 C38.4,40.5414214 39.2,41.3414214 39.3,41.4414214 C39.4,41.5414214 39.8,41.8414214 40.3,41.6414214 C40.6,41.5414214 40.9,41.5414214 41.1,41.6414214 C41.3,41.8414214 41.6,41.9414214 41.8,42.1414214 C42.6,42.7414214 43.3,43.3414214 44,43.9414214 C44.3,44.1414214 44.5,44.3414214 44.6,44.6414214 C44.8,44.9414214 44.8,45.2414214 44.5,45.5414214 C44.4,45.6414214 44.2,45.8414214 44,45.9414214 L44,46.0414214 C43.9,46.0414214 43.9,46.0414214 43.8,46.1414214 C43.2,46.6414214 43.1,47.2414214 43.4,47.9414214 C43.6,48.3414214 44.2,48.4414214 44.4,48.3414214 C44.1,48.3414214 44,47.9414214 44.1,47.6414214 C44.3,47.7414214 44.4,47.7414214 44.6,47.7414214 C45.1,47.7414214 45.4,47.5414214 45.6,47.1414214 C45.8,46.6414214 45.8,45.7414214 47,45.6414214 C47.9,45.5414214 48.7,45.4414214 49.5,45.3414214 C50,45.3414214 50.4,45.1414214 50.6,44.6414214 C50.7,44.4414214 51.1,44.3414214 51.5,44.5414214 C51.6,44.5414214 51.7,44.7414214 51.8,44.8414214 C52.1,44.2414214 51.5,43.3414214 50.6,43.2414214 C50.8,42.9414214 51.3,42.8414214 51.8,43.1414214 C51.8,42.5414214 51.3,41.9414214 50.7,41.9414214 C50.3,41.9414214 50,41.8414214 49.7,41.6414214 C48.9,41.1414214 48.1,41.3414214 47.6,42.1414214 C47.2,42.6414214 47,43.2414214 46.9,43.9414214 C46.9,43.9414214 46.9,44.0414214 46.8,44.1414214 C46.7,44.0414214 46.6,44.0414214 46.5,43.9414214 C46.2,43.6414214 45.8,43.4414214 45.5,43.1414214 C44.7,42.4414214 42.8,40.5414214 42.8,40.5414214 C42.7,39.8414214 42.5,39.3414214 42.1,38.7414214 C42,38.5414214 42.5,38.9414214 43.1,38.6414214 C41.4,37.6414214 42.5,35.7414214 38.7,35.0414214 C38.7,35.0414214 39.1,34.5414214 39.2,34.1414214 C39.1,34.9414214 40.8,35.3414214 40.8,32.6414214 C40.8,34.4414214 42.4,35.5414214 42.8,33.2414214 C43.2,34.4414214 44.7,34.8414214 44.7,32.9414214 C45.4,34.2414214 46.3,33.3414214 46.4,32.9414214 C46.4,33.4414214 46.6,34.1414214 46.8,34.6414214 C47,35.2414214 47.7,37.0414214 48.7,36.7414214 C48.8,36.6414214 48.9,36.7414214 49,36.8414214 C49.2,37.1414214 49.6,37.5414214 50,37.6414214 C50.1,38.4414214 50.1,41.2414214 52.7,41.8414214 C52.8,41.8414214 52.9,41.8414214 53,41.9414214 C53.5,42.4414214 53.8,42.7414214 54.5,42.7414214 C54.7,42.7414214 55,42.9414214 55.1,43.0414214 C55.6,43.4414214 56.1,43.7414214 56.8,43.7414214 C57.1,43.7414214 57.3,43.8414214 57.6,44.0414214 C58,44.3414214 58.6,44.3414214 59,44.2414214 C58.6,44.0414214 58.1,43.7414214 58,42.1414214 L58,42.1414214 Z" id="Shape"></path>
      </g>
    </g>
  </g>
</svg>
